STARTFONT 2.1
COMMENT Exported by Fony v1.4.7
FONT 21X31TG
SIZE 31 96 96
FONTBOUNDINGBOX 21 30 0 -6
STARTPROPERTIES 6
COPYRIGHT "Tangar @ http://tangar.info for TomeNET @ http://tomenet.eu"
RESOLUTION_X 96
RESOLUTION_Y 96
FONT_ASCENT 25
FONT_DESCENT 6
DEFAULT_CHAR 31
ENDPROPERTIES
CHARS 256
STARTCHAR 000
ENCODING 0
SWIDTH 1512 0
DWIDTH 21 0
BBX 21 31 0 -6
BITMAP
800008
400010
400010
200020
100040
100040
080080
040100
040100
020200
010400
010400
008800
005000
005000
002000
003000
005000
008800
008400
010400
020200
020100
040100
080080
080040
100040
200020
200010
400010
800008
ENDCHAR
STARTCHAR 001
ENCODING 1
SWIDTH 1512 0
DWIDTH 21 0
BBX 19 1 1 -3
BITMAP
924920
ENDCHAR
STARTCHAR 002
ENCODING 2
SWIDTH 1512 0
DWIDTH 21 0
BBX 21 31 0 -6
BITMAP
FFFFF8
FFFFF8
FFFFF8
FFFFF8
FFFFF8
FFFFF8
FFFFF8
FFFFF8
FFFFF8
FFFFF8
FFFFF8
FFFFF8
FFFFF8
FFFFF8
FFFFF8
FFFFF8
FFFFF8
FFFFF8
FFFFF8
FFFFF8
FFFFF8
FFFFF8
FFFFF8
FFFFF8
FFFFF8
FFFFF8
FFFFF8
FFFFF8
FFFFF8
FFFFF8
FFFFF8
ENDCHAR
STARTCHAR 003
ENCODING 3
SWIDTH 1512 0
DWIDTH 21 0
BBX 20 1 0 -2
BITMAP
DB6DB0
ENDCHAR
STARTCHAR 004
ENCODING 4
SWIDTH 1512 0
DWIDTH 21 0
BBX 5 5 8 -3
BITMAP
70
C8
F8
F8
70
ENDCHAR
STARTCHAR 005
ENCODING 5
SWIDTH 1512 0
DWIDTH 21 0
BBX 19 3 1 -1
BITMAP
924920
000000
444440
ENDCHAR
STARTCHAR 006
ENCODING 6
SWIDTH 1512 0
DWIDTH 21 0
BBX 19 6 1 -1
BITMAP
020800
051400
020800
904120
00A000
444440
ENDCHAR
STARTCHAR 007
ENCODING 7
SWIDTH 1512 0
DWIDTH 21 0
BBX 20 1 0 -2
BITMAP
F7BDF0
ENDCHAR
STARTCHAR 008
ENCODING 8
SWIDTH 1512 0
DWIDTH 21 0
BBX 21 4 0 8
BITMAP
210840
210840
5294A0
8C6318
ENDCHAR
STARTCHAR 009
ENCODING 9
SWIDTH 1512 0
DWIDTH 21 0
BBX 7 5 7 7
BITMAP
82
C6
EE
7C
38
ENDCHAR
STARTCHAR 010
ENCODING 10
SWIDTH 1512 0
DWIDTH 21 0
BBX 21 29 0 -6
BITMAP
FF87F8
FFCFF8
FFCFF8
FFCFF8
FF87F8
000000
000000
F0FFF8
F9FFF8
F9FFF8
F9FFF8
F9FFF8
F9FFF8
F0FFF8
000000
000000
FF87F8
FFCFF8
FFCFF8
FFCFF8
FF87F8
000000
000000
F0FFF8
F9FFF8
F9FFF8
F9FFF8
F9FFF8
F0FFF8
ENDCHAR
STARTCHAR 011
ENCODING 11
SWIDTH 1512 0
DWIDTH 21 0
BBX 21 29 0 -6
BITMAP
FFCFF8
FFCFF8
FFCFF8
FFCFF8
FFCFF8
000000
000000
F9FFF8
F9FFF8
F9FFF8
F9FFF8
F9FFF8
F9FFF8
F9FFF8
000000
000000
FFCFF8
FFCFF8
FFCFF8
FFCFF8
FFCFF8
000000
000000
F9FFF8
F9FFF8
F9FFF8
F9FFF8
F9FFF8
F9FFF8
ENDCHAR
STARTCHAR 012
ENCODING 12
SWIDTH 1512 0
DWIDTH 21 0
BBX 21 29 0 -6
BITMAP
FFCFF8
FFCFF8
FFCDF8
FFCDF8
FFCFF8
000000
000000
F9FFF8
F9FFF8
C9FFF8
C9FFF8
F9FFF8
F9FFF8
F9FFF8
000000
000000
FFCFF8
FFCDF8
FFCDF8
FFCFF8
FFCFF8
000000
000000
F9FFF8
C9FFF8
C9FFF8
F9FFF8
F9FFF8
F9FFF8
ENDCHAR
STARTCHAR 013
ENCODING 13
SWIDTH 1512 0
DWIDTH 21 0
BBX 21 31 0 -6
BITMAP
FFFFF8
7EFDF8
7EFDF8
3C00F0
3DFCF0
83FE00
C60308
E801B8
E801B8
6E03B8
6E03B8
2FFFB0
2FFFB0
87FE00
C9FC88
E9FDB8
EE03B8
6E03B8
67FF38
37FE70
33FEF0
81FC00
C0F808
FC01F8
FFFFF8
7EFDF8
7EFDF8
3C78F0
3C78F0
810200
C38708
ENDCHAR
STARTCHAR 014
ENCODING 14
SWIDTH 1512 0
DWIDTH 21 0
BBX 21 31 0 -6
BITMAP
000400
000E00
001E00
001F00
083F00
0C3F80
1C7B80
1E67C0
1EE7C0
36FFC0
37FFE0
2F9FE0
6F1FE0
7EEFF0
7EFF90
FCF390
F9FBF8
F199F8
F39DF8
E3ECC8
C7EE60
87EE00
07FF00
0FFF00
0FFF80
1CFF80
3FFFC0
3FFFC0
7FFFE0
FFFFF0
FFFFF8
ENDCHAR
STARTCHAR 015
ENCODING 15
SWIDTH 1512 0
DWIDTH 21 0
BBX 20 29 0 -6
BITMAP
01C000
03E000
06F000
07F800
0F9C00
1F9C00
1FFE00
3FFE00
3FFE00
7FE600
7FC200
FFBC00
FE7E00
CEFF00
C9CF80
F9CF80
FBFFC0
377FC0
277FE0
0FFFE0
0FFFE0
1FFFE0
1FFFF0
3FFFF0
3FFE70
7FFFF0
7FFFF0
7FFFF0
09B260
ENDCHAR
STARTCHAR 016
ENCODING 16
SWIDTH 1512 0
DWIDTH 21 0
BBX 21 29 0 -6
BITMAP
FFFFF8
FFFFF8
FFFFF8
E23438
FFFFF8
E8D038
FFFFF8
E340F8
FFFFF8
ED0378
FFFFF8
F40D38
FFFFF8
F03438
FFFFF8
E0D038
FFFFF8
E34038
FFFFF8
ED00B8
FFFFF8
F40238
FFFFF8
F00838
FFFFF8
E02038
FFFFF8
FFFFF8
FFFFF8
ENDCHAR
STARTCHAR 017
ENCODING 17
SWIDTH 1512 0
DWIDTH 21 0
BBX 21 29 0 -6
BITMAP
FFFFF8
FFFFF8
FFFFF8
E23438
E46838
E8D038
F1A078
E340F8
E681B8
ED0378
FA06B8
F40D38
E81A38
F03438
E06838
E0D038
E1A038
E34038
E68078
ED00B8
FA0138
F40238
E80438
F00838
E01038
E02038
FFFFF8
FFFFF8
FFFFF8
ENDCHAR
STARTCHAR 018
ENCODING 18
SWIDTH 1512 0
DWIDTH 21 0
BBX 21 29 0 -6
BITMAP
FFFFF8
FFFFF8
FFFFF8
E2C038
E4C038
E8C038
F1C038
E3C038
E6C038
EDC038
FAC038
F4C038
E8C038
F0C038
E0C038
E0C038
E1C038
E3C038
E6C038
EDC038
FAC038
F4C038
E8C038
F0C038
E0C038
E0C038
FFFFF8
FFFFF8
FFFFF8
ENDCHAR
STARTCHAR 019
ENCODING 19
SWIDTH 1512 0
DWIDTH 21 0
BBX 21 29 0 -6
BITMAP
FFFFF8
FFFFF8
FFFFF8
E13278
FFFFF8
E4C9B8
FFFFF8
F32678
FFFFF8
EC9938
FFFFF8
FFFFF8
FFFFF8
E00038
FFFFF8
E47338
FFFFF8
EEF738
FFFFF8
E6F338
FFFFF8
E7F438
FFFFF8
E1FC38
FFFFF8
E0F838
FFFFF8
FFFFF8
FFFFF8
ENDCHAR
STARTCHAR 020
ENCODING 20
SWIDTH 1512 0
DWIDTH 21 0
BBX 21 29 0 -6
BITMAP
FFFFF8
FFFFF8
FFFFF8
E13278
E264F8
E4C9B8
E99338
F32678
E64CB8
EC9938
F93238
FFFFF8
FFFFF8
E00038
E02138
E47338
E67BB8
EEF738
E77BB8
E6F338
EE7E38
E7F438
E27038
E1FC38
E1FC38
E0F838
FFFFF8
FFFFF8
FFFFF8
ENDCHAR
STARTCHAR 021
ENCODING 21
SWIDTH 1512 0
DWIDTH 21 0
BBX 21 29 0 -6
BITMAP
FFFFF8
FFFFF8
FFFFF8
E1C038
E2C038
E4C038
E9C038
F3C038
E6C038
ECC038
F9C038
FFFFF8
FFFFF8
E00038
E02138
E47338
E67BB8
EEF738
E77BB8
E6F338
EE7E38
E7F438
E27038
E1FC38
E1FC38
E0F838
FFFFF8
FFFFF8
FFFFF8
ENDCHAR
STARTCHAR 022
ENCODING 22
SWIDTH 1512 0
DWIDTH 21 0
BBX 21 31 0 -6
BITMAP
800008
400010
400010
200020
100040
100040
080080
040100
040100
020200
010400
010400
008800
005000
005000
002000
003000
005000
008800
008400
010400
020200
020100
040100
080080
080040
100040
200020
200010
400010
800008
ENDCHAR
STARTCHAR 023
ENCODING 23
SWIDTH 1512 0
DWIDTH 21 0
BBX 21 31 0 -6
BITMAP
800008
400010
400010
200020
100040
100040
080080
040100
040100
020200
010400
010400
008800
005000
005000
002000
003000
005000
008800
008400
010400
020200
020100
040100
080080
080040
100040
200020
200010
400010
800008
ENDCHAR
STARTCHAR 024
ENCODING 24
SWIDTH 1512 0
DWIDTH 21 0
BBX 21 31 0 -6
BITMAP
800008
400010
400010
200020
100040
100040
080080
040100
040100
020200
010400
010400
008800
005000
005000
002000
003000
005000
008800
008400
010400
020200
020100
040100
080080
080040
100040
200020
200010
400010
800008
ENDCHAR
STARTCHAR 025
ENCODING 25
SWIDTH 1512 0
DWIDTH 21 0
BBX 21 31 0 -6
BITMAP
800008
400010
400010
200020
100040
100040
080080
040100
040100
020200
010400
010400
008800
005000
005000
002000
003000
005000
008800
008400
010400
020200
020100
040100
080080
080040
100040
200020
200010
400010
800008
ENDCHAR
STARTCHAR 026
ENCODING 26
SWIDTH 1512 0
DWIDTH 21 0
BBX 21 31 0 -6
BITMAP
800008
400010
400010
200020
100040
100040
080080
040100
040100
020200
010400
010400
008800
005000
005000
002000
003000
005000
008800
008400
010400
020200
020100
040100
080080
080040
100040
200020
200010
400010
800008
ENDCHAR
STARTCHAR 027
ENCODING 27
SWIDTH 1512 0
DWIDTH 21 0
BBX 21 31 0 -6
BITMAP
800008
400010
400010
200020
100040
100040
080080
040100
040100
020200
010400
010400
008800
005000
005000
002000
003000
005000
008800
008400
010400
020200
020100
040100
080080
080040
100040
200020
200010
400010
800008
ENDCHAR
STARTCHAR 028
ENCODING 28
SWIDTH 1512 0
DWIDTH 21 0
BBX 21 31 0 -6
BITMAP
800008
400010
400010
200020
100040
100040
080080
040100
040100
020200
010400
010400
008800
005000
005000
002000
003000
005000
008800
008400
010400
020200
020100
040100
080080
080040
100040
200020
200010
400010
800008
ENDCHAR
STARTCHAR 029
ENCODING 29
SWIDTH 1512 0
DWIDTH 21 0
BBX 21 31 0 -6
BITMAP
800008
400010
400010
200020
100040
100040
080080
040100
040100
020200
010400
010400
008800
005000
005000
002000
003000
005000
008800
008400
010400
020200
020100
040100
080080
080040
100040
200020
200010
400010
800008
ENDCHAR
STARTCHAR 030
ENCODING 30
SWIDTH 1512 0
DWIDTH 21 0
BBX 21 31 0 -6
BITMAP
800008
400010
400010
200020
100040
100040
080080
040100
040100
020200
010400
010400
008800
005000
005000
002000
003000
005000
008800
008400
010400
020200
020100
040100
080080
080040
100040
200020
200010
400010
800008
ENDCHAR
STARTCHAR 031
ENCODING 31
SWIDTH 1512 0
DWIDTH 21 0
BBX 21 31 0 -6
BITMAP
800008
400010
400010
200020
100040
100040
080080
040100
040100
020200
010400
010400
008800
005000
005000
002000
003000
005000
008800
008400
010400
020200
020100
040100
080080
080040
100040
200020
200010
400010
800008
ENDCHAR
STARTCHAR 032
ENCODING 32
SWIDTH 1512 0
DWIDTH 21 0
BBX 0 0 0 0
BITMAP
ENDCHAR
STARTCHAR 033
ENCODING 33
SWIDTH 1512 0
DWIDTH 21 0
BBX 7 24 7 -2
BITMAP
38
7C
7C
7E
FE
E6
E6
E6
FE
FE
FE
FE
FC
FC
FC
78
78
30
00
00
30
78
78
30
ENDCHAR
STARTCHAR 034
ENCODING 34
SWIDTH 1512 0
DWIDTH 21 0
BBX 10 6 6 13
BITMAP
F3C0
F3C0
F3C0
F3C0
E1C0
C0C0
ENDCHAR
STARTCHAR 035
ENCODING 35
SWIDTH 1512 0
DWIDTH 21 0
BBX 13 13 4 3
BITMAP
38E0
38E0
FFF8
FFF8
FFF8
38E0
38E0
38E0
FFF8
FFF8
FFF8
38E0
38E0
ENDCHAR
STARTCHAR 036
ENCODING 36
SWIDTH 1512 0
DWIDTH 21 0
BBX 15 28 3 -5
BITMAP
0060
00E0
00E0
03E0
0FF8
1FFC
3DDE
79CE
71C6
71C6
79C0
3FC0
3FC0
0FF0
03F8
039C
039E
038E
C38E
E38E
F39E
7FBC
3FF8
1FF0
07C0
0700
0700
0600
ENDCHAR
STARTCHAR 037
ENCODING 37
SWIDTH 1512 0
DWIDTH 21 0
BBX 18 21 2 0
BITMAP
000400
000400
380C00
7C0C00
C61C00
C63800
C63800
C67000
7C7000
38E000
00E000
01C700
01CF80
0398C0
0398C0
0718C0
0718C0
0E0F80
0C0700
1C0000
380000
ENDCHAR
STARTCHAR 038
ENCODING 38
SWIDTH 1512 0
DWIDTH 21 0
BBX 16 19 3 0
BITMAP
07E0
0FF0
1818
1818
1838
1870
0CE0
0FC0
0F80
1F80
39C3
70E3
E077
E07E
E03C
F01E
7FFF
3FF7
1FC3
ENDCHAR
STARTCHAR 039
ENCODING 39
SWIDTH 1512 0
DWIDTH 21 0
BBX 6 10 7 9
BITMAP
7C
7C
7C
7C
7C
18
38
30
60
C0
ENDCHAR
STARTCHAR 040
ENCODING 40
SWIDTH 1512 0
DWIDTH 21 0
BBX 7 25 8 -3
BITMAP
02
06
0C
1C
18
38
30
70
F0
E0
E0
E0
E0
E0
E0
E0
F0
70
30
38
18
1C
0C
06
02
ENDCHAR
STARTCHAR 041
ENCODING 41
SWIDTH 1512 0
DWIDTH 21 0
BBX 7 25 6 -3
BITMAP
80
C0
60
70
30
38
18
1C
1E
0E
0E
0E
0E
0E
0E
0E
1E
1C
18
38
30
70
60
C0
80
ENDCHAR
STARTCHAR 042
ENCODING 42
SWIDTH 1512 0
DWIDTH 21 0
BBX 12 13 4 3
BITMAP
0600
C630
E670
76E0
3FC0
1F80
FFF0
FFF0
1F80
3FC0
76E0
E670
C630
ENDCHAR
STARTCHAR 043
ENCODING 43
SWIDTH 1512 0
DWIDTH 21 0
BBX 17 17 2 1
BITMAP
03E000
03E000
03E000
03E000
03E000
03E000
FFFF80
FFFF80
FFFF80
FFFF80
FFFF80
03E000
03E000
03E000
03E000
03E000
03E000
ENDCHAR
STARTCHAR 044
ENCODING 44
SWIDTH 1512 0
DWIDTH 21 0
BBX 9 10 5 -5
BITMAP
0E00
1F00
3F80
3F80
3F80
1F00
0E00
1C00
3800
E000
ENDCHAR
STARTCHAR 045
ENCODING 45
SWIDTH 1512 0
DWIDTH 21 0
BBX 16 4 3 7
BITMAP
FFFF
FFFF
FFFF
FFFF
ENDCHAR
STARTCHAR 046
ENCODING 46
SWIDTH 1512 0
DWIDTH 21 0
BBX 5 5 8 7
BITMAP
70
F8
F8
F8
70
ENDCHAR
STARTCHAR 047
ENCODING 47
SWIDTH 1512 0
DWIDTH 21 0
BBX 12 21 4 0
BITMAP
0030
0030
0070
00F0
00E0
00E0
01C0
01C0
0380
0380
0700
0F00
0E00
1E00
1C00
3C00
3800
7000
F000
E000
E000
ENDCHAR
STARTCHAR 048
ENCODING 48
SWIDTH 1512 0
DWIDTH 21 0
BBX 13 20 4 0
BITMAP
01C0
07E0
0FF0
1FF0
3E70
3C38
7838
7838
7078
7078
7078
F0F0
E0F0
E0F0
E1E0
E1C0
F3C0
7F80
7F00
3E00
ENDCHAR
STARTCHAR 049
ENCODING 49
SWIDTH 1512 0
DWIDTH 21 0
BBX 9 20 6 0
BITMAP
0300
0700
0F00
1F00
3F00
7F00
FF00
0E00
0E00
0E00
0E00
1E00
1E00
1E00
1E00
1E00
1E00
3E00
7F00
FF80
ENDCHAR
STARTCHAR 050
ENCODING 50
SWIDTH 1512 0
DWIDTH 21 0
BBX 14 21 3 0
BITMAP
03F0
07F8
0FFC
1F1C
3C1C
3C1C
301C
301C
003C
0038
0078
00F0
01E0
03C0
0780
0F00
1E00
3C1C
FFFC
FFFC
FFFC
ENDCHAR
STARTCHAR 051
ENCODING 51
SWIDTH 1512 0
DWIDTH 21 0
BBX 13 20 3 0
BITMAP
03E0
07F0
0FF0
1C78
1878
1038
0038
0078
00F0
03E0
07F0
00F0
0038
0018
8018
E038
F0F8
7FF0
3FE0
1F80
ENDCHAR
STARTCHAR 052
ENCODING 52
SWIDTH 1512 0
DWIDTH 21 0
BBX 11 20 5 0
BITMAP
3000
3000
3060
7060
70E0
60E0
E0C0
E1C0
FFC0
FFC0
FFC0
01C0
0180
0380
0380
0380
0380
0700
0700
0700
ENDCHAR
STARTCHAR 053
ENCODING 53
SWIDTH 1512 0
DWIDTH 21 0
BBX 16 19 2 0
BITMAP
03FE
03FF
0700
0700
0E00
0E00
0F80
1FE0
1FF0
0078
0038
0018
0018
8018
E038
7870
3FF0
1FE0
0780
ENDCHAR
STARTCHAR 054
ENCODING 54
SWIDTH 1512 0
DWIDTH 21 0
BBX 12 19 4 0
BITMAP
07C0
1FE0
3870
3830
7010
E000
E000
E780
EFC0
FFE0
F8F0
F070
E030
E030
E070
F0E0
7FE0
3FC0
1F00
ENDCHAR
STARTCHAR 055
ENCODING 55
SWIDTH 1512 0
DWIDTH 21 0
BBX 15 19 3 0
BITMAP
3FFE
7FFC
E03C
E038
C038
0070
0070
00E0
01E0
01C0
03C0
0380
0780
0700
0F00
0F00
1E00
1E00
1E00
ENDCHAR
STARTCHAR 056
ENCODING 56
SWIDTH 1512 0
DWIDTH 21 0
BBX 12 20 4 0
BITMAP
07C0
0FE0
1FF0
3870
3870
3870
3870
3DE0
1FC0
1F80
3F80
7FC0
61E0
E0E0
C0E0
C0E0
E1E0
7FC0
7F80
3E00
ENDCHAR
STARTCHAR 057
ENCODING 57
SWIDTH 1512 0
DWIDTH 21 0
BBX 13 19 4 0
BITMAP
03E0
0FF0
1FF0
3C78
3C38
3838
3838
3C78
3FF0
1FF0
0FF0
00E0
00E0
01E0
01C0
83C0
C780
FF00
7C00
ENDCHAR
STARTCHAR 058
ENCODING 58
SWIDTH 1512 0
DWIDTH 21 0
BBX 6 14 8 -2
BITMAP
30
78
FC
FC
78
30
00
00
30
78
FC
FC
78
30
ENDCHAR
STARTCHAR 059
ENCODING 59
SWIDTH 1512 0
DWIDTH 21 0
BBX 7 17 7 -5
BITMAP
18
3C
7E
7E
3C
18
00
00
18
3C
7E
7E
3C
18
38
70
C0
ENDCHAR
STARTCHAR 060
ENCODING 60
SWIDTH 1512 0
DWIDTH 21 0
BBX 20 27 0 -4
BITMAP
000070
000070
000070
000E70
000E70
000E70
01CE70
01CE70
01CE70
19CE70
19CE70
99CE70
99CE70
99CE70
99CE70
99CE70
19CE70
19CE70
01CE70
01CE70
01CE70
000E70
000E70
000E70
000070
000070
000070
ENDCHAR
STARTCHAR 061
ENCODING 61
SWIDTH 1512 0
DWIDTH 21 0
BBX 16 9 3 4
BITMAP
FFFF
FFFF
FFFF
0000
0000
0000
0000
FFFF
FFFF
ENDCHAR
STARTCHAR 062
ENCODING 62
SWIDTH 1512 0
DWIDTH 21 0
BBX 20 27 1 -4
BITMAP
E00000
E00000
E00000
E70000
E70000
E70000
E73800
E73800
E73800
E73980
E73980
E73990
E73990
E73990
E73990
E73990
E73980
E73980
E73800
E73800
E73800
E70000
E70000
E70000
E00000
E00000
E00000
ENDCHAR
STARTCHAR 063
ENCODING 63
SWIDTH 1512 0
DWIDTH 21 0
BBX 13 24 4 -3
BITMAP
07C0
1FE0
3FF0
7870
F038
F038
E018
0018
0038
0070
00F0
01E0
03C0
0780
0F00
0E00
0E00
0000
0000
0E00
1F00
1F00
1F00
0E00
ENDCHAR
STARTCHAR 064
ENCODING 64
SWIDTH 1512 0
DWIDTH 21 0
BBX 16 28 3 -5
BITMAP
03C0
07E0
07E0
07E0
07E0
03C0
0180
07E0
1FF8
3FFC
7FFE
7FFE
F7EF
E7E7
E7E7
C7E3
CFF3
0FF0
0FF0
0E70
0E78
1E78
1C38
1C38
1C38
1C38
3C3C
781E
ENDCHAR
STARTCHAR 065
ENCODING 65
SWIDTH 1512 0
DWIDTH 21 0
BBX 20 23 1 -1
BITMAP
07C000
1FE000
3FF000
3FF800
31FC00
21FC00
03DE00
038E00
038F00
070700
070700
0E0780
0E0780
0E0780
1FFF80
1FFFC0
1FFFC0
3C03C0
3C03C0
3C03C0
7C03E0
7C03E0
FE07F0
ENDCHAR
STARTCHAR 066
ENCODING 66
SWIDTH 1512 0
DWIDTH 21 0
BBX 16 20 2 0
BITMAP
FFC0
7FF0
3FF8
3C3C
3C1C
3C1C
3C1C
3C38
3FF8
3FFC
3FFE
3C07
3C03
3C03
3C07
3C0E
3FFE
3FFC
3FF8
3FE0
ENDCHAR
STARTCHAR 067
ENCODING 67
SWIDTH 1512 0
DWIDTH 21 0
BBX 17 21 2 0
BITMAP
03FC00
0FFE00
1FFF00
3FFF00
7F0780
7E0780
780780
F80700
F00C00
F00000
F00000
F00000
F00000
F00000
F00000
F80100
7C0300
7E0F00
3FFE00
1FFC00
07F000
ENDCHAR
STARTCHAR 068
ENCODING 68
SWIDTH 1512 0
DWIDTH 21 0
BBX 19 22 1 -1
BITMAP
7FF800
3FFE00
3FFF00
3FFF80
3807C0
3803C0
3803E0
3801E0
3801E0
3801E0
3801E0
3801E0
3801E0
3801E0
3801E0
3801E0
3803E0
3807C0
3FFFC0
3FFF80
7FFF00
FFFC00
ENDCHAR
STARTCHAR 069
ENCODING 69
SWIDTH 1512 0
DWIDTH 21 0
BBX 15 24 2 -2
BITMAP
0002
FFFE
7FFE
3FFE
3FFE
3800
3800
3800
3800
3800
3FC0
3FC0
3FC0
3FC0
3800
3800
3800
3800
3800
3FFE
3FFE
3FFE
3FFE
0002
ENDCHAR
STARTCHAR 070
ENCODING 70
SWIDTH 1512 0
DWIDTH 21 0
BBX 15 22 4 -1
BITMAP
FFFE
FFFE
FFFE
FFFE
F006
F000
F000
F000
F000
FF00
FF80
FFC0
FFE0
F000
F000
F000
F000
F000
F000
F000
F000
F000
ENDCHAR
STARTCHAR 071
ENCODING 71
SWIDTH 1512 0
DWIDTH 21 0
BBX 18 23 2 -1
BITMAP
03F800
0FFE00
1FFF00
3FFF80
3F0780
7C03C0
7C03C0
780000
780000
F00000
F00000
F00000
F00F00
F03F80
F07FC0
F073C0
7801C0
7C01C0
7F0380
3FFF80
3FFF80
0FFF00
03FC00
ENDCHAR
STARTCHAR 072
ENCODING 72
SWIDTH 1512 0
DWIDTH 21 0
BBX 17 22 2 -1
BITMAP
F80F80
780F00
780F00
780F00
780F00
780F00
780F00
780F00
780F00
7FFF00
7FFF00
7FFF00
780F00
780F00
780F00
780F00
780F00
780F00
780F00
780F00
780F00
FC1F80
ENDCHAR
STARTCHAR 073
ENCODING 73
SWIDTH 1512 0
DWIDTH 21 0
BBX 9 21 6 0
BITMAP
FF80
FF80
FF80
1C00
1C00
1C00
1C00
1C00
1C00
1C00
1C00
1C00
1C00
1C00
1C00
1C00
1C00
1C00
FF80
FF80
FF80
ENDCHAR
STARTCHAR 074
ENCODING 74
SWIDTH 1512 0
DWIDTH 21 0
BBX 17 23 2 -1
BITMAP
001F80
001F80
001F80
000F00
000F00
000F00
000F00
000F00
000F00
000F00
000F00
000F00
000F00
000F00
F80F00
F80F00
700F00
700F00
781F00
3C3F00
3FFE00
1FFC00
07F800
ENDCHAR
STARTCHAR 075
ENCODING 75
SWIDTH 1512 0
DWIDTH 21 0
BBX 19 23 1 -1
BITMAP
000700
3E0F80
7E1FC0
FE1CC0
3C3C40
383800
387800
387000
38E000
39E000
3BC000
3FC000
3FC000
3FC000
3FE000
39F020
38F060
387860
383CE0
383FC0
3C1FC0
7C1FC0
FC0780
ENDCHAR
STARTCHAR 076
ENCODING 76
SWIDTH 1512 0
DWIDTH 21 0
BBX 15 21 2 0
BITMAP
FC00
7C00
3C00
3C00
3C00
3C00
3C00
3C00
3C00
3C00
3C00
3C00
3C00
3C00
3C00
3C00
3C06
3C06
3FFE
3FFE
3FFE
ENDCHAR
STARTCHAR 077
ENCODING 77
SWIDTH 1512 0
DWIDTH 21 0
BBX 20 22 1 -1
BITMAP
1801C0
1C01C0
1C03C0
1C03C0
1E03C0
1E07C0
1F07C0
3F06E0
3F8EE0
3B8EE0
39DCE0
39DCE0
38DCE0
78F8E0
7878E0
7878E0
7830E0
7830E0
7800F0
FC01F0
FC01F0
FE03F0
ENDCHAR
STARTCHAR 078
ENCODING 78
SWIDTH 1512 0
DWIDTH 21 0
BBX 18 23 2 -2
BITMAP
0000C0
000180
700780
780780
7C0780
7E0780
7E0780
770780
738780
738780
71C780
71C780
70E700
707700
707F00
703F00
701F00
701F00
700F00
700F00
700F00
600000
C00000
ENDCHAR
STARTCHAR 079
ENCODING 79
SWIDTH 1512 0
DWIDTH 21 0
BBX 18 19 2 0
BITMAP
07F000
1FFC00
3FFE00
7FFF00
7E0780
FC0380
F801C0
F981C0
F181C0
F001C0
F001C0
F001C0
F001C0
700380
780780
3C0F00
1FFE00
0FFC00
03F000
ENDCHAR
STARTCHAR 080
ENCODING 80
SWIDTH 1512 0
DWIDTH 21 0
BBX 16 22 2 -1
BITMAP
FFF0
7FF8
3FFC
300E
3007
3003
3003
3007
300F
3FFE
3FFC
3FF8
3000
3000
3000
3000
3000
3000
3000
3000
7000
F000
ENDCHAR
STARTCHAR 081
ENCODING 81
SWIDTH 1512 0
DWIDTH 21 0
BBX 20 25 1 -3
BITMAP
0FF000
3FF800
7FFC00
7FFE00
7FFF00
FC1F00
F00F80
E00780
E00380
E001C0
C000C0
C000C0
C000C0
C000C0
C070C0
C070C0
E070C0
603980
703F80
3C0F00
1FFF80
0FFF80
0003C0
0000E0
000030
ENDCHAR
STARTCHAR 082
ENCODING 82
SWIDTH 1512 0
DWIDTH 21 0
BBX 18 22 2 0
BITMAP
FFE000
7FF000
7FF800
7FFC00
703C00
701E00
700E00
700E00
701E00
703C00
7FF800
7FF000
7FE000
71F000
70F000
707800
707800
783CC0
7C3FC0
7C1FC0
7C0FC0
FC0780
ENDCHAR
STARTCHAR 083
ENCODING 83
SWIDTH 1512 0
DWIDTH 21 0
BBX 18 21 2 0
BITMAP
00F800
03FE00
07FF00
0F0F80
1C0380
3C01C0
380000
380000
3C0000
1FF000
0FFC00
03FE00
000F00
000380
000380
F00380
780380
3C0780
1FFF00
0FFE00
03F800
ENDCHAR
STARTCHAR 084
ENCODING 84
SWIDTH 1512 0
DWIDTH 21 0
BBX 18 22 2 0
BITMAP
800040
FFFFC0
FFFFC0
FFFFC0
FFFFC0
03F000
03F000
03F000
03F000
03F000
03F000
03F000
03F000
03F000
03F000
03F000
03F000
03F000
03F000
03F000
03F000
07F800
ENDCHAR
STARTCHAR 085
ENCODING 85
SWIDTH 1512 0
DWIDTH 21 0
BBX 16 21 3 0
BITMAP
F81F
F00F
F00F
F00F
F00F
F00F
F00F
F00F
F00F
F00F
F00F
F00F
F00F
F00F
F00F
F00F
F00F
781E
7FFE
3FFC
1FF8
ENDCHAR
STARTCHAR 086
ENCODING 86
SWIDTH 1512 0
DWIDTH 21 0
BBX 18 21 2 0
BITMAP
FE0FC0
FE0FC0
F803C0
7003C0
700380
700380
700780
380700
380700
380E00
380E00
1C1C00
1C1C00
0C3C00
0E3800
0E3800
077000
077000
07E000
03E000
03C000
ENDCHAR
STARTCHAR 087
ENCODING 87
SWIDTH 1512 0
DWIDTH 21 0
BBX 18 20 1 0
BITMAP
F003C0
700380
700380
700380
700380
700380
700380
700380
700380
700380
70C380
71E380
73F380
73F380
773B80
7E1F80
7C0F80
7C0780
780780
700300
ENDCHAR
STARTCHAR 088
ENCODING 88
SWIDTH 1512 0
DWIDTH 21 0
BBX 18 23 1 0
BITMAP
F003C0
F003C0
780780
380700
1C0E00
1E1E00
0E1C00
073800
07F800
03F000
03F000
03F000
03F000
07F800
073800
0F3C00
0E1C00
1C0E00
3C0F00
380700
700380
F003C0
F003C0
ENDCHAR
STARTCHAR 089
ENCODING 89
SWIDTH 1512 0
DWIDTH 21 0
BBX 18 24 2 -1
BITMAP
F003C0
F003C0
700380
700380
380700
380700
1C0E00
0C0C00
0E1C00
061800
073800
03F000
03F000
01E000
00C000
00C000
00C000
00C000
00C000
00C000
00C000
00C000
07F800
03F000
ENDCHAR
STARTCHAR 090
ENCODING 90
SWIDTH 1512 0
DWIDTH 21 0
BBX 18 21 2 0
BITMAP
200000
600000
FFFF80
FFFF80
001F00
001E00
003C00
007800
00F800
00F000
01E000
03C000
03C000
078000
0F0000
0E0000
1E0040
7C00C0
FFFF80
FFFF80
FFFF00
ENDCHAR
STARTCHAR 091
ENCODING 91
SWIDTH 1512 0
DWIDTH 21 0
BBX 9 26 7 -5
BITMAP
FF80
FF80
FF80
FF80
E000
E000
E000
E000
E000
E000
E000
E000
E000
E000
E000
E000
E000
E000
E000
E000
E000
E000
FF80
FF80
FF80
FF80
ENDCHAR
STARTCHAR 092
ENCODING 92
SWIDTH 1512 0
DWIDTH 21 0
BBX 12 21 4 0
BITMAP
E000
E000
E000
3000
3000
3000
1C00
1C00
0E00
0E00
0E00
0300
0300
01C0
01C0
01C0
00E0
00E0
0030
0030
0030
ENDCHAR
STARTCHAR 093
ENCODING 93
SWIDTH 1512 0
DWIDTH 21 0
BBX 9 26 6 -5
BITMAP
FF80
FF80
FF80
FF80
0380
0380
0380
0380
7380
7380
7380
0380
0380
0380
0380
0380
0380
0380
0380
0380
0380
0380
FF80
FF80
FF80
FF80
ENDCHAR
STARTCHAR 094
ENCODING 94
SWIDTH 1512 0
DWIDTH 21 0
BBX 18 13 2 8
BITMAP
00C000
00C000
01E000
01E000
03F000
07F800
07F800
0FFC00
1FFE00
3F3F00
3E1F00
7C0F80
F807C0
ENDCHAR
STARTCHAR 095
ENCODING 95
SWIDTH 1512 0
DWIDTH 21 0
BBX 21 4 0 -5
BITMAP
FFFFF8
FFFFF8
FFFFF8
FFFFF8
ENDCHAR
STARTCHAR 096
ENCODING 96
SWIDTH 1512 0
DWIDTH 21 0
BBX 6 9 9 11
BITMAP
70
F8
F8
F8
70
70
30
38
1C
ENDCHAR
STARTCHAR 097
ENCODING 97
SWIDTH 1512 0
DWIDTH 21 0
BBX 14 14 4 0
BITMAP
0010
1F30
3FE0
7FE0
F1E0
E0E0
E0E0
E0E0
E0E0
E0E0
F1EC
7FFC
3F78
1E30
ENDCHAR
STARTCHAR 098
ENCODING 98
SWIDTH 1512 0
DWIDTH 21 0
BBX 15 23 3 -1
BITMAP
0C00
1C00
1C00
3C00
FC00
1C00
1C00
1C00
1C00
1C00
1DF0
1FF8
1FFC
1F1C
1E0E
1E0E
1C0E
1C0E
1E1E
1FFC
1FFC
3FF0
E000
ENDCHAR
STARTCHAR 099
ENCODING 99
SWIDTH 1512 0
DWIDTH 21 0
BBX 12 14 5 0
BITMAP
0F80
3FE0
7FF0
7830
F000
E000
E000
E000
E000
E000
F030
7FF0
7FE0
3FC0
ENDCHAR
STARTCHAR 100
ENCODING 100
SWIDTH 1512 0
DWIDTH 21 0
BBX 15 23 3 0
BITMAP
0020
0030
003C
0038
0038
0038
0038
0038
0038
0038
0F38
1FF8
3FF8
78F8
7078
E038
E038
E038
E078
E078
FFFE
7FDE
3F8C
ENDCHAR
STARTCHAR 101
ENCODING 101
SWIDTH 1512 0
DWIDTH 21 0
BBX 13 15 4 0
BITMAP
07E0
1FF0
3FF0
3C30
7830
7070
7FE0
FFC0
FF00
E000
F000
7808
7FF8
3FF0
0FE0
ENDCHAR
STARTCHAR 102
ENCODING 102
SWIDTH 1512 0
DWIDTH 21 0
BBX 13 21 4 0
BITMAP
03E0
07E0
07F0
0730
0700
0700
0700
0700
0700
4708
4708
7FF8
FFF0
8710
8710
0700
0700
0700
0700
0700
0F80
ENDCHAR
STARTCHAR 103
ENCODING 103
SWIDTH 1512 0
DWIDTH 21 0
BBX 13 21 4 -5
BITMAP
0780
0FD8
1FF8
3870
3070
3070
30E0
38E0
3FE0
1FC0
0F80
03F8
0FF0
3CC0
78C0
F0C0
E180
C380
8700
CE00
7800
ENDCHAR
STARTCHAR 104
ENCODING 104
SWIDTH 1512 0
DWIDTH 21 0
BBX 15 21 4 -1
BITMAP
2000
6000
E000
6000
6000
6000
6000
6000
6000
6000
6000
6780
6FC0
7FC0
79C0
70C0
60C0
60C2
60E6
60FE
F07C
ENDCHAR
STARTCHAR 105
ENCODING 105
SWIDTH 1512 0
DWIDTH 21 0
BBX 7 18 7 0
BITMAP
38
38
00
00
00
78
78
78
38
38
38
38
38
38
38
38
7C
FE
ENDCHAR
STARTCHAR 106
ENCODING 106
SWIDTH 1512 0
DWIDTH 21 0
BBX 13 24 4 -5
BITMAP
0038
0038
0038
0000
0000
0000
0010
0010
0030
0030
0030
0030
0030
0030
0030
0030
0030
8030
C030
C070
E0E0
71E0
3FC0
1F00
ENDCHAR
STARTCHAR 107
ENCODING 107
SWIDTH 1512 0
DWIDTH 21 0
BBX 15 20 4 -3
BITMAP
1000
3000
7000
3000
303C
307C
30EC
31CC
3380
3E00
3E00
3F00
33C0
31E0
30F2
307A
303E
701E
E000
C000
ENDCHAR
STARTCHAR 108
ENCODING 108
SWIDTH 1512 0
DWIDTH 21 0
BBX 12 22 5 0
BITMAP
01E0
03F0
03F0
0730
0630
0C30
0C70
1C60
18C0
19C0
3380
3F00
3E00
3C00
7800
F000
F060
30E0
31C0
3380
3F00
1E00
ENDCHAR
STARTCHAR 109
ENCODING 109
SWIDTH 1512 0
DWIDTH 21 0
BBX 17 14 2 0
BITMAP
0F1F00
3FBF00
7FFF80
7BF780
F0C380
F0C380
F0C380
E0C380
E08780
E08780
C00700
C00F00
C00E00
C00C00
ENDCHAR
STARTCHAR 110
ENCODING 110
SWIDTH 1512 0
DWIDTH 21 0
BBX 17 15 3 0
BITMAP
180000
180000
7FE000
FFF000
DFF000
987000
187000
187000
187000
187000
187080
187980
383F80
781F80
FC0F00
ENDCHAR
STARTCHAR 111
ENCODING 111
SWIDTH 1512 0
DWIDTH 21 0
BBX 13 13 4 0
BITMAP
0FC0
3FF0
7870
7038
E018
E018
E098
E098
E018
7038
7FF0
3FF0
0FC0
ENDCHAR
STARTCHAR 112
ENCODING 112
SWIDTH 1512 0
DWIDTH 21 0
BBX 12 17 5 -4
BITMAP
7FC0
7FE0
7FF0
6070
6030
6030
6070
7FF0
7FE0
7FC0
6000
6000
6000
6000
6000
6000
C000
ENDCHAR
STARTCHAR 113
ENCODING 113
SWIDTH 1512 0
DWIDTH 21 0
BBX 15 20 4 -6
BITMAP
0010
1F30
3FF0
7FF0
F0F0
F070
E030
E030
E070
F0F0
7FF0
3FB0
1F30
0030
0030
0032
0036
003C
003C
0038
ENDCHAR
STARTCHAR 114
ENCODING 114
SWIDTH 1512 0
DWIDTH 21 0
BBX 13 15 6 -1
BITMAP
3000
3800
3F00
3FC0
7FF8
78F0
7000
7000
7000
7000
F000
E000
E000
E000
C000
ENDCHAR
STARTCHAR 115
ENCODING 115
SWIDTH 1512 0
DWIDTH 21 0
BBX 11 15 5 -1
BITMAP
1F80
3FC0
78E0
7060
7020
3800
1E00
0F00
0380
01C0
00C0
80C0
C1C0
7F80
3F00
ENDCHAR
STARTCHAR 116
ENCODING 116
SWIDTH 1512 0
DWIDTH 21 0
BBX 13 19 3 0
BITMAP
0700
0700
0700
0700
0700
FF00
7FF0
07F8
07F8
0700
0700
0700
0700
0700
0700
0708
07F8
07F8
07F0
ENDCHAR
STARTCHAR 117
ENCODING 117
SWIDTH 1512 0
DWIDTH 21 0
BBX 13 13 5 0
BITMAP
E038
E038
E038
E038
E038
E038
E038
E038
E038
7070
7FF0
3FE0
1FC0
ENDCHAR
STARTCHAR 118
ENCODING 118
SWIDTH 1512 0
DWIDTH 21 0
BBX 18 14 2 0
BITMAP
FC07C0
780380
300300
380700
180600
1C0E00
0C0C00
0E0C00
061800
031800
03B000
01F000
01E000
00E000
ENDCHAR
STARTCHAR 119
ENCODING 119
SWIDTH 1512 0
DWIDTH 21 0
BBX 20 13 1 0
BITMAP
F00070
7000E0
3000E0
3800C0
1801C0
186180
1CF180
0DFB80
0D9B00
0F9F00
078E00
070E00
020400
ENDCHAR
STARTCHAR 120
ENCODING 120
SWIDTH 1512 0
DWIDTH 21 0
BBX 14 14 3 0
BITMAP
E01C
7038
3870
1CE0
0FC0
0780
0300
0300
0780
0FC0
1CE0
3870
7038
E01C
ENDCHAR
STARTCHAR 121
ENCODING 121
SWIDTH 1512 0
DWIDTH 21 0
BBX 15 18 3 -5
BITMAP
E00E
701C
701C
381C
3838
1C38
0C38
0E70
0770
07E0
03C0
03C0
0380
0380
0700
4E00
7C00
7800
ENDCHAR
STARTCHAR 122
ENCODING 122
SWIDTH 1512 0
DWIDTH 21 0
BBX 14 14 4 0
BITMAP
FFFC
FFFC
003C
0078
00F0
01E0
03C0
0780
0F00
1E00
3C00
7FFC
FFFC
FFFC
ENDCHAR
STARTCHAR 123
ENCODING 123
SWIDTH 1512 0
DWIDTH 21 0
BBX 9 25 6 -4
BITMAP
0F80
0F80
0C00
0C00
0C00
0C00
0C00
0C00
0C00
0C00
1C00
3800
F000
7800
1800
0C00
0C00
0C00
0C00
0C00
0C00
0C00
0C00
0C00
0780
ENDCHAR
STARTCHAR 124
ENCODING 124
SWIDTH 1512 0
DWIDTH 21 0
BBX 2 25 10 -4
BITMAP
C0
C0
C0
C0
C0
C0
C0
C0
C0
C0
C0
C0
C0
C0
C0
C0
C0
C0
C0
C0
C0
C0
C0
C0
C0
ENDCHAR
STARTCHAR 125
ENCODING 125
SWIDTH 1512 0
DWIDTH 21 0
BBX 12 26 4 -5
BITMAP
FC00
FC00
1E00
0E00
0700
0700
0300
0300
0300
0300
0300
01C0
00F0
01C0
0180
0300
0300
0300
0300
0300
0300
0700
0E00
0E00
3E00
FC00
ENDCHAR
STARTCHAR 126
ENCODING 126
SWIDTH 1512 0
DWIDTH 21 0
BBX 16 12 3 1
BITMAP
1E07
3F8F
7FCF
F1FE
E078
0000
0000
1E07
7F8F
F1FE
E0FC
E078
ENDCHAR
STARTCHAR 127
ENCODING 127
SWIDTH 1512 0
DWIDTH 21 0
BBX 21 31 0 -6
BITMAP
FFFFF8
FFFFF8
FFFFF8
FFFFF8
FFFFF8
FFFFF8
FFFFF8
FFFFF8
FFFFF8
FFFFF8
FFFFF8
FFFFF8
FFFFF8
FFFFF8
FFFFF8
FFFFF8
FFFFF8
FFFFF8
FFFFF8
FFFFF8
FFFFF8
FFFFF8
FFFFF8
FFFFF8
FFFFF8
FFFFF8
FFFFF8
FFFFF8
FFFFF8
FFFFF8
FFFFF8
ENDCHAR
STARTCHAR 128
ENCODING 128
SWIDTH 1512 0
DWIDTH 21 0
BBX 21 29 0 -6
BITMAP
FFFFF8
FFFFF8
FC03F8
F000F8
E00078
C3FF38
C00038
80F818
840018
84FA08
240248
24FA48
240248
A49248
A49248
249208
249208
2492C8
2492C8
249208
249208
249248
249248
249248
A49248
A49248
249248
249248
249248
ENDCHAR
STARTCHAR 129
ENCODING 129
SWIDTH 1512 0
DWIDTH 21 0
BBX 7 28 1 -6
BITMAP
F0
F0
F0
B0
B0
F0
F0
F0
F0
F0
F0
F0
F0
FE
FE
FE
F0
F0
F0
F0
F0
F0
F0
B0
B0
F0
F0
F0
ENDCHAR
STARTCHAR 130
ENCODING 130
SWIDTH 1512 0
DWIDTH 21 0
BBX 18 22 2 -1
BITMAP
FE1FC0
FC0FC0
F807C0
F003C0
F003C0
F003C0
F003C0
F003C0
F003C0
F003C0
F003C0
F003C0
F003C0
F003C0
F003C0
F003C0
F807C0
7C0F80
7FFF80
3FFF00
1FFE00
07F800
ENDCHAR
STARTCHAR 131
ENCODING 131
SWIDTH 1512 0
DWIDTH 21 0
BBX 18 27 2 -4
BITMAP
01E000
03F000
02D000
03F000
02D000
033000
01E000
00C000
03F000
07F800
0FFC00
1FFE00
3FFF00
7BF780
F3F3C0
C3F0C0
01E000
03F000
07F800
07F800
00C000
00C000
00C000
00C000
00C000
00C000
00C000
ENDCHAR
STARTCHAR 132
ENCODING 132
SWIDTH 1512 0
DWIDTH 21 0
BBX 16 16 3 2
BITMAP
0180
0180
0180
1998
1998
1998
1998
D99B
D99B
1998
1998
1998
1998
0180
0180
0180
ENDCHAR
STARTCHAR 133
ENCODING 133
SWIDTH 1512 0
DWIDTH 21 0
BBX 17 27 2 -6
BITMAP
015000
0AA900
15F400
6F3A00
6B3E00
1FF980
39F980
F9CE00
3FFE00
DFF980
CFCF80
3FCE00
39F980
F9FF80
1FFE00
9FF880
FF3980
673700
37F600
2FFA00
15D400
01C000
01C000
01C000
01C000
01C000
01C000
ENDCHAR
STARTCHAR 134
ENCODING 134
SWIDTH 1512 0
DWIDTH 21 0
BBX 17 22 2 -6
BITMAP
040000
209000
052800
0A5100
048000
364C00
09F200
69F200
6FBE00
3FBE80
07FD00
C9FE00
C9CE00
3FCD80
3FFD80
CE7E00
D67100
2BEA00
09D400
01C000
01C000
01C000
ENDCHAR
STARTCHAR 135
ENCODING 135
SWIDTH 1512 0
DWIDTH 21 0
BBX 17 27 2 -6
BITMAP
014000
18DC00
0E7000
23F200
334F80
194C80
0D7800
C4F000
46C100
39F700
479C00
8F8000
0CF300
18FE00
F1CC00
078600
0F8000
79F000
09FE00
09C000
118000
018000
01C000
01C000
01C000
01C000
01C000
ENDCHAR
STARTCHAR 136
ENCODING 136
SWIDTH 1512 0
DWIDTH 21 0
BBX 21 31 0 -6
BITMAP
063030
063020
1841E0
D841C0
D98E00
798E00
39B180
064060
064060
F64E10
F64E18
09B188
09B180
09B180
C64260
C64270
393018
393000
C70C70
084DC8
084D80
31B200
31B200
C63270
C63278
084D88
09CD80
09CDC0
333258
323270
C66060
ENDCHAR
STARTCHAR 137
ENCODING 137
SWIDTH 1512 0
DWIDTH 21 0
BBX 20 31 1 -6
BITMAP
800000
808000
400000
810000
210080
820000
948100
828000
024200
803400
840A00
840000
401200
840000
A02100
0840C0
850030
908040
910080
025300
A00C00
241200
802000
484130
9100C0
420300
A41880
514080
AA0040
500000
2BB770
ENDCHAR
STARTCHAR 138
ENCODING 138
SWIDTH 1512 0
DWIDTH 21 0
BBX 21 5 0 8
BITMAP
210840
210840
739CE0
FFFFF8
CE7398
ENDCHAR
STARTCHAR 139
ENCODING 139
SWIDTH 1512 0
DWIDTH 21 0
BBX 19 30 1 -6
BITMAP
040800
000000
204080
000000
000000
808820
040000
000000
111100
004000
000000
4F1E00
1FBB00
3BFFA0
2FEE80
71F1C0
60E0C0
404040
004000
004020
804000
004000
0FFF00
3040C0
604060
400060
6000E0
7FFFE0
3FFFC0
1FFF80
ENDCHAR
STARTCHAR 140
ENCODING 140
SWIDTH 1512 0
DWIDTH 21 0
BBX 21 20 0 -5
BITMAP
000380
0007C0
000EC0
01DC40
03F860
1BFFE0
3E1FA0
7F1CA0
57D8F0
647070
FC70F0
CE3FE0
C7BF90
CFFF50
D0C248
665CE8
6F22A8
DFA0A8
DFE2A8
0F9CE8
ENDCHAR
STARTCHAR 141
ENCODING 141
SWIDTH 1512 0
DWIDTH 21 0
BBX 20 30 1 -6
BITMAP
0A8000
0A4000
16C010
164010
1FC030
0FC020
0B4060
0FC0C0
0F80C0
1541C0
174180
124380
3FD700
3FD600
7FDE00
7FEC00
7FFF80
FFCC00
FFD000
FFF800
FF9000
FFF000
FFF000
FFF000
FFF000
FFF000
FFF000
FFF000
AAA000
AAA000
ENDCHAR
STARTCHAR 142
ENCODING 142
SWIDTH 1512 0
DWIDTH 21 0
BBX 21 25 0 -5
BITMAP
007800
01FE00
07FF80
1FFFE0
3FFFE0
CFFFD8
E3FF38
F9FE78
FC79F8
FF03F8
FFCFF8
FFDFF8
FFDFF8
FFDFF8
FFDFF8
FFDFF8
FFDFF8
FFDFF8
7FDFF0
3FDFE0
0FDFC0
07DF00
01DE00
00F800
002000
ENDCHAR
STARTCHAR 143
ENCODING 143
SWIDTH 1512 0
DWIDTH 21 0
BBX 21 31 0 -6
BITMAP
800008
400010
400010
200020
100040
100040
080080
040100
040100
020200
010400
010400
008800
005000
005000
002000
003000
005000
008800
008400
010400
020200
020100
040100
080080
080040
100040
200020
200010
400010
800008
ENDCHAR
STARTCHAR 144
ENCODING 144
SWIDTH 1512 0
DWIDTH 21 0
BBX 21 31 0 -6
BITMAP
800008
400010
400010
200020
100040
100040
080080
040100
040100
020200
010400
010400
008800
005000
005000
002000
003000
005000
008800
008400
010400
020200
020100
040100
080080
080040
100040
200020
200010
400010
800008
ENDCHAR
STARTCHAR 145
ENCODING 145
SWIDTH 1512 0
DWIDTH 21 0
BBX 21 31 0 -6
BITMAP
BEFDD8
F7F7F8
FDDDF8
5FFF30
FFBB38
F3FFF8
B3FED8
FF77F0
7FFFF8
FFFED0
EDEFF8
7FFBF8
FF3F78
FB3FE8
7FEFF8
EFFAF0
FEDFF8
FFFFB8
DFF9F8
7F79F0
F3FFF8
FFEFB8
6F7EF8
FFFFF0
FFEDB8
D9FFF8
79BE78
FFEE58
FFFFF0
DEFBF8
7FDF78
ENDCHAR
STARTCHAR 146
ENCODING 146
SWIDTH 1512 0
DWIDTH 21 0
BBX 21 31 0 -6
BITMAP
FFFFF8
7EFDF8
7EFDF8
3C78F0
3C78F0
810200
C38708
FFFFF8
FFFFF8
7EFDF8
7EFDF8
3C78F0
3C78F0
810200
C38708
FFFFF8
FFFFF8
7EFDF8
7EFDF8
3C78F0
3C78F0
810200
C38708
FFFFF8
FFFFF8
7EFDF8
7EFDF8
3C78F0
3C78F0
810200
C38708
ENDCHAR
STARTCHAR 147
ENCODING 147
SWIDTH 1512 0
DWIDTH 21 0
BBX 16 23 3 -3
BITMAP
0100
0180
0180
03C0
03C0
05A0
0BE0
0BB0
1558
2548
2924
7FFE
FFFE
A4DB
F6A5
5ACA
2D94
16A8
0BD0
05A0
03C0
0180
0080
ENDCHAR
STARTCHAR 148
ENCODING 148
SWIDTH 1512 0
DWIDTH 21 0
BBX 21 29 0 -5
BITMAP
3EC6E8
7F8FF8
5F67F0
6FAFF0
1F0B58
000000
000000
7C3FE0
FE7FF0
FD5FF0
FE7EF0
FF6FB0
3E3FE0
000000
000000
67CFA0
FFEFF0
FF8FE0
FFE7E0
7F8FE0
BE4650
000000
000000
3F1FD8
7E1FF8
7FAFE8
3F9FF0
7FAFE0
2B1950
ENDCHAR
STARTCHAR 149
ENCODING 149
SWIDTH 1512 0
DWIDTH 21 0
BBX 21 31 0 -6
BITMAP
FEFEF8
7EFDF0
8FDBB0
AF27B8
FECC58
75DEE8
71FDF8
0DDDB0
762C78
F6F5F8
77F5D8
AB73E0
5FBC30
FCCFC8
FDEED8
0FAEE8
F3BEC8
FB7DF0
72B5F0
8DFAB0
7ECBB8
F7D310
7F3EE8
867DE8
757FC8
73B9B0
FF3578
AFCCE0
D6DD60
F2DF98
7DE7F8
ENDCHAR
STARTCHAR 150
ENCODING 150
SWIDTH 1512 0
DWIDTH 21 0
BBX 21 30 0 -6
BITMAP
3EC6E8
658DB8
5967F0
6FACE0
1F0B58
000000
000000
7C3FE0
FE6F50
F55BA0
DA7650
EB6FB0
3E3FE0
000000
000000
67CFA0
DF6EF0
ED8960
DE66C0
6D8BA0
BE4650
000000
000000
3F1FD8
5E1BB8
6DAE68
1E9BB0
6DAFA0
5B1950
200400
ENDCHAR
STARTCHAR 151
ENCODING 151
SWIDTH 1512 0
DWIDTH 21 0
BBX 19 16 1 2
BITMAP
000040
000080
1E0160
7F82C0
6FE580
FFF760
BFFEC0
F1FD80
E07F20
CE3E40
9F1D80
318020
60C0E0
C0E3C0
807F80
003C00
ENDCHAR
STARTCHAR 152
ENCODING 152
SWIDTH 1512 0
DWIDTH 21 0
BBX 21 22 0 -3
BITMAP
000038
000038
0000F8
0000F8
0003F8
0003F0
000FC0
000FC0
003F00
003F00
00FC00
00FC00
33F000
33F000
0FC000
0FC000
0F0000
0F0000
30C000
30C000
C00000
C00000
ENDCHAR
STARTCHAR 153
ENCODING 153
SWIDTH 1512 0
DWIDTH 21 0
BBX 17 29 1 -5
BITMAP
E00000
F00000
7C0000
3C0000
3F0000
1FE000
1FF800
1FFC00
1FFE00
1E1F00
1E1F00
1E0700
1E0700
1E1E00
1FFE00
1FFC00
1FFF00
1E0380
1E0180
1E0180
1E0380
1E0780
07FF00
1BFE00
1BFC00
1DE000
3F0000
7E0000
FC0000
ENDCHAR
STARTCHAR 154
ENCODING 154
SWIDTH 1512 0
DWIDTH 21 0
BBX 18 23 2 -2
BITMAP
000080
000180
03FF80
0FFF80
1FFE80
3FFF80
7F3F80
7F1B80
7F8D80
F88680
FC0000
FE0000
F00000
F00000
F00000
F00000
F08000
FFB3C0
7FF7C0
7FEF00
3FFC00
3FFC00
0FF800
ENDCHAR
STARTCHAR 155
ENCODING 155
SWIDTH 1512 0
DWIDTH 21 0
BBX 20 24 0 -5
BITMAP
0FFC00
0FFF00
0FFF80
0FFFC0
0F87E0
0F83E0
0F81F0
0F81F0
1F80F0
3F80F0
7D80F0
F980F0
7D80F0
3F80F0
1F80F0
0F80F0
0F80F0
0F81F0
0F83E0
0F87E0
0FFFC0
0FFF80
0FFF00
0FFC00
ENDCHAR
STARTCHAR 156
ENCODING 156
SWIDTH 1512 0
DWIDTH 21 0
BBX 20 24 0 -5
BITMAP
FFFF00
7FFFC0
39FFE0
1D87E0
0F83F0
0F81F0
0F80F0
0F80F0
0F80F0
0F80F0
0F80F0
0F80F0
0F80F0
0F80F0
0F80F0
0F80F0
0F80F0
0F80F0
0F81F0
0D83F0
1987E0
3FFFE0
7FFFC0
FFFF00
ENDCHAR
STARTCHAR 157
ENCODING 157
SWIDTH 1512 0
DWIDTH 21 0
BBX 21 31 0 -6
BITMAP
800008
400010
400010
200020
100040
100040
080080
040100
040100
020200
010400
010400
008800
005000
005000
002000
003000
005000
008800
008400
010400
020200
020100
040100
080080
080040
100040
200020
200010
400010
800008
ENDCHAR
STARTCHAR 158
ENCODING 158
SWIDTH 1512 0
DWIDTH 21 0
BBX 14 31 3 -6
BITMAP
0380
0300
0300
0700
0600
0600
0C00
0C00
1800
1804
300C
7FF8
7FF8
C030
8030
0060
0060
00E0
00C0
01C0
0180
0380
0300
2700
3E00
3FC0
3F80
3F00
3E00
3C00
3000
ENDCHAR
STARTCHAR 159
ENCODING 159
SWIDTH 1512 0
DWIDTH 21 0
BBX 21 25 0 -2
BITMAP
003800
607000
70E040
39C040
19C040
1980C0
1B9F80
1B3F88
0B6670
CB6CE0
EBACC8
739998
3B9998
19DDB0
0DCD90
35ECC0
18FCE8
DCFCE8
2FB9C0
37D230
16E1B0
0967B0
0F6E70
0F6DE8
000EE0
ENDCHAR
STARTCHAR 160
ENCODING 160
SWIDTH 1512 0
DWIDTH 21 0
BBX 20 25 1 -2
BITMAP
01F800
01F800
01A800
01F800
E1F870
E1F870
E1F870
000000
7803E0
7BFBE0
7BFBE0
7BFBE0
03F800
03F800
03F800
03F800
000000
0E0380
0E0380
0E0380
000000
0003E0
3E03E0
3E03E0
3E03E0
ENDCHAR
STARTCHAR 161
ENCODING 161
SWIDTH 1512 0
DWIDTH 21 0
BBX 21 29 0 -6
BITMAP
013D80
217D88
30FE18
18CA18
0CF630
077C70
03E2C0
09FEB0
1DFFB0
3FBB78
7FBB78
FDBB38
F18338
71FF18
79FF18
38FC18
383CB8
021838
09C380
03E7A0
07E7C0
07C3E0
05C320
05C3A0
0FC3F0
0F83F0
1B8358
1583B8
1483A8
ENDCHAR
STARTCHAR 162
ENCODING 162
SWIDTH 1512 0
DWIDTH 21 0
BBX 21 31 0 -6
BITMAP
007E00
08D6E0
1DAAE0
1F57F0
3DFC70
780070
F03878
F07CF8
FC55F8
FE7DF8
7E7DF0
7F3BE0
3FC7E0
0FFFC0
03FF80
03FF80
03FF80
03FF80
0FFF80
1FFFC0
7FFFE0
7FFFF0
7F03F0
3C03F0
3C00F0
1E01E0
0E01C0
0E0780
1C0780
3807E0
3801E0
ENDCHAR
STARTCHAR 163
ENCODING 163
SWIDTH 1512 0
DWIDTH 21 0
BBX 20 30 1 -6
BITMAP
000E10
000F30
000730
0003B0
0003B0
0001E0
0001E0
0001E0
0000E0
0000E0
0001E0
0001E0
0003E0
3C03E0
7E0FE0
7F0FE0
FFFFE0
FFFFE0
FFFFE0
F7FFE0
FFFFC0
FFFFC0
FCFF80
F5FF00
CBFF00
D5FE00
2BF800
37E000
1F8000
1F0000
ENDCHAR
STARTCHAR 164
ENCODING 164
SWIDTH 1512 0
DWIDTH 21 0
BBX 20 28 0 -4
BITMAP
038000
03E000
07E000
06A000
0FE000
0B4000
1B8000
19B800
247000
2FF400
6FF600
67C730
C483F0
C3C180
F1C000
7E8000
06E000
09F000
1FF000
3FF800
3FF800
3FFC00
7FFC00
FFFC00
E1FE00
103E00
380000
700E00
ENDCHAR
STARTCHAR 165
ENCODING 165
SWIDTH 1512 0
DWIDTH 21 0
BBX 21 27 0 -3
BITMAP
00F000
010800
00F000
000000
007000
18F180
3CF9C0
3CABE0
7EFBE0
7E53F0
7DADF0
FCD9F0
FAFAF8
FAFAF8
F77778
F77778
F70778
E6FB78
EFFB78
6DFFF8
6DFDF0
63FC30
47FC10
419E10
018C00
038E00
078F00
ENDCHAR
STARTCHAR 166
ENCODING 166
SWIDTH 1512 0
DWIDTH 21 0
BBX 21 30 0 -6
BITMAP
0001F0
003BE0
0077E0
00EFC0
01EFE0
03EFF0
03DFF0
03DFE0
039FE0
037FE0
037EC0
0679F0
06FFF0
06BBC0
00F600
3DFF80
57FFC0
F9CB00
ABD000
07E000
0FF800
07FC00
03FF00
01FFC0
06FFF0
087FD8
145FE0
158F40
114080
014000
ENDCHAR
STARTCHAR 167
ENCODING 167
SWIDTH 1512 0
DWIDTH 21 0
BBX 21 21 0 -2
BITMAP
C60000
7E0000
FE0000
D60000
FE0000
430030
5BC078
7FFE18
7FFF98
7FFFD8
7FFFF0
3FFFE0
3FFFC0
1FFFE0
1FE7E0
1DE3F0
18C3F0
18C330
18C330
18C670
39C000
ENDCHAR
STARTCHAR 168
ENCODING 168
SWIDTH 1512 0
DWIDTH 21 0
BBX 21 29 0 -6
BITMAP
00E000
03B000
07F9C0
007960
01FBE0
0073C0
E077A0
B0F780
F8F700
3CFF20
7EFE50
DFFE78
1FFCF8
0FFDF0
0FF9E8
07F3C0
07FFC0
03FF80
01FF00
00FE00
00FE00
007F00
003F00
0F1F00
1FFF70
3FFFF8
3FFFF8
1EF9F0
007060
ENDCHAR
STARTCHAR 169
ENCODING 169
SWIDTH 1512 0
DWIDTH 21 0
BBX 21 27 0 -4
BITMAP
080080
3800E0
320260
B20268
B20268
B30668
B38E68
B9FCE8
F12578
7CF8F0
9A73C8
EB77B8
F4A978
FD74F8
F9DDF8
C3DF18
31FC60
EC71B8
58F9D0
19FDC0
1DFDC0
1BFFC0
09FD80
08F980
1C01C0
330760
208920
ENDCHAR
STARTCHAR 170
ENCODING 170
SWIDTH 1512 0
DWIDTH 21 0
BBX 21 31 0 -6
BITMAP
403808
A04410
50AA28
AA8250
55D6A8
0AFF40
00FE80
017D00
00BA00
015400
00AA00
015500
02AA00
055580
320230
184860
0CFCC0
07FF80
13FF20
1EFDE0
067980
2733A0
13FF40
29FEA0
11FE40
28FCA0
107840
00FC00
00B400
00FC00
007800
ENDCHAR
STARTCHAR 171
ENCODING 171
SWIDTH 1512 0
DWIDTH 21 0
BBX 21 22 0 -1
BITMAP
382040
082040
042080
842100
842100
43FE00
43FE00
431F38
3E07C0
060300
0C4180
0CE180
7C6380
4C0380
8E0700
8E0FC0
071F38
05FE00
082100
082100
302080
402040
ENDCHAR
STARTCHAR 172
ENCODING 172
SWIDTH 1512 0
DWIDTH 21 0
BBX 17 27 2 -5
BITMAP
00FF00
030180
06FC80
0D0380
0A0A80
0CF180
030F80
03FF80
00FF80
019F80
017F00
04FE00
037E00
00FE00
027C00
05F800
00F000
0BE000
09E000
07C000
0F8000
270000
1C0000
180000
300000
400000
800000
ENDCHAR
STARTCHAR 173
ENCODING 173
SWIDTH 1512 0
DWIDTH 21 0
BBX 21 19 0 -4
BITMAP
000060
000060
000070
100038
110018
3B0018
7F0018
6F0010
7F8F98
7FFFF0
3FFFF0
7FFFF8
7FFFF8
3FFFF8
7FEFF8
FBC3B8
C707B0
8E0F30
1C0060
ENDCHAR
STARTCHAR 174
ENCODING 174
SWIDTH 1512 0
DWIDTH 21 0
BBX 20 27 0 -6
BITMAP
000380
000C40
001020
002000
0066D0
00C6C0
018010
070000
0E0310
190300
260330
560010
3D0030
A50070
460050
0800A0
8E0320
1D05C0
200660
2A8C40
DB68A0
36D440
44B880
4E5000
182000
284000
008000
ENDCHAR
STARTCHAR 175
ENCODING 175
SWIDTH 1512 0
DWIDTH 21 0
BBX 21 24 0 -6
BITMAP
003C00
00FA10
01FE10
006A10
007E10
006C10
03D810
07E410
0FE410
1FCD10
1FC9D0
3FC3B8
3FD1D0
7FD0D8
7FD118
7FDCB8
FFCC40
FFC638
FFDB38
FF8300
FC0300
000000
0E01C0
1C00E0
ENDCHAR
STARTCHAR 176
ENCODING 176
SWIDTH 1512 0
DWIDTH 21 0
BBX 10 24 6 -4
BITMAP
3800
7C00
7C00
2C00
7C00
3C00
1F00
1F80
1F80
1FC0
1EC0
1E40
3E40
2E40
4E40
4E40
8E40
0A40
0A40
0A00
0A00
0A00
0A00
0A00
ENDCHAR
STARTCHAR 177
ENCODING 177
SWIDTH 1512 0
DWIDTH 21 0
BBX 20 29 1 -4
BITMAP
000020
000170
0001F0
0001F0
0001F0
00E1F0
011180
011180
00A080
011080
01F080
0B1AC0
35F5C0
6BFAC0
E5E7E0
FAEBE0
ED17E0
EAA8C0
ED5400
E2A800
E55400
F2A800
77FC00
77FC00
07BC00
071C00
0F1E00
1F1F00
1F1F00
ENDCHAR
STARTCHAR 178
ENCODING 178
SWIDTH 1512 0
DWIDTH 21 0
BBX 19 28 2 -4
BITMAP
000020
000060
09C040
078080
074180
030100
03C200
066600
0D4400
0B0800
0FD800
09D000
09A000
0D1000
0C8800
06A000
0FE000
0FE000
1FE000
1C6000
1C6000
183000
383000
383000
303000
303000
703800
E03C00
ENDCHAR
STARTCHAR 179
ENCODING 179
SWIDTH 1512 0
DWIDTH 21 0
BBX 21 29 0 -4
BITMAP
080020
080020
0C0060
0701C0
037980
00F800
009000
00B400
06F8C0
037980
3B71B0
7C80F8
7C00F8
F90138
E18338
E1FF38
700060
700060
700060
000000
030180
0783C0
0F83E0
0F01E0
0E00E0
000000
1C0070
300018
700018
ENDCHAR
STARTCHAR 180
ENCODING 180
SWIDTH 1512 0
DWIDTH 21 0
BBX 20 28 1 -5
BITMAP
001800
005800
000040
000080
000000
0001E0
01C3E0
03E7E0
3FFE40
7FFE60
7FFFF0
3FF3F0
3FE3E0
3FC7C0
778F80
E71F80
E63FC0
E07FC0
70FF80
7FFE00
3FFE00
3FFE00
7F3E00
7F0E20
3E0000
1C0000
000600
800000
ENDCHAR
STARTCHAR 181
ENCODING 181
SWIDTH 1512 0
DWIDTH 21 0
BBX 21 19 0 1
BITMAP
07C000
3FF000
7FFF18
7DFFF0
FDFFE0
703D80
780000
7E03E0
3FFFF0
1FFFF8
1FFFF8
07C078
000038
000078
0FFFF8
3FFFE8
6FFFF0
FB87E0
F00000
ENDCHAR
STARTCHAR 182
ENCODING 182
SWIDTH 1512 0
DWIDTH 21 0
BBX 21 26 0 -3
BITMAP
700000
700400
505500
A87F80
702080
202A80
202480
201100
219540
20DAB0
236DB8
2273B8
284C80
6C3180
684E00
207F80
20FFC0
218C60
20EDB0
21C0C0
200020
218060
200020
218060
238070
270078
ENDCHAR
STARTCHAR 183
ENCODING 183
SWIDTH 1512 0
DWIDTH 21 0
BBX 21 29 0 -6
BITMAP
04A8C0
13F300
0CFC00
03F9C0
3DAE00
07FC00
0AD200
16E180
066E60
291C00
0BFD00
1BFD80
5DF1D0
3120F8
38F070
F07028
202000
013800
027C00
07FC00
0FFE00
0FFE00
0FFF00
1FFF00
3FFF00
387F80
040F80
0E0000
1C0380
ENDCHAR
STARTCHAR 184
ENCODING 184
SWIDTH 1512 0
DWIDTH 21 0
BBX 17 20 2 0
BITMAP
800080
434300
74B700
74B700
3B4C00
3CBC00
4FFB00
B7F480
B7F480
4FFB00
4FFB00
B7F480
B7F480
4FFB00
3CBC00
3B4C00
74B700
74B700
434300
800080
ENDCHAR
STARTCHAR 185
ENCODING 185
SWIDTH 1512 0
DWIDTH 21 0
BBX 21 29 0 -5
BITMAP
008400
018600
008400
C07800
C0FC00
207800
107800
0ECCE8
1C8550
02FDB0
3B0368
3BFED8
7DFDB8
79FB18
F07618
C18C38
FA9B38
FCB7B8
7E44C0
1FBB60
078BA0
0B83C0
0803C0
0801C0
0E01C0
080040
0E01C0
1E01E0
3C00F0
ENDCHAR
STARTCHAR 186
ENCODING 186
SWIDTH 1512 0
DWIDTH 21 0
BBX 20 28 0 -4
BITMAP
000020
000050
000050
000050
00F050
01F820
018860
015840
010F60
0F4920
0992A0
18E260
246460
222420
420720
471CE0
BCFC20
80E220
870220
7C0120
0800A0
1000A0
3000A0
31F8E0
FE09E0
F3FFE0
7FFF20
1F1E00
ENDCHAR
STARTCHAR 187
ENCODING 187
SWIDTH 1512 0
DWIDTH 21 0
BBX 19 26 0 -4
BITMAP
000800
001C00
003C00
007E00
00EE00
01E300
03FF80
03FF80
83FFC0
47FFE0
27FFE0
37FE60
1EFE60
1E7FC0
0CFF80
01FF00
01FF80
01FF80
01FF80
01FF80
03FF80
03FFC0
03FFC0
0300C0
0700E0
060060
ENDCHAR
STARTCHAR 188
ENCODING 188
SWIDTH 1512 0
DWIDTH 21 0
BBX 21 28 0 -6
BITMAP
C0E000
C1F000
215000
15F000
06F000
16E000
1B2400
3BE000
3BCFF8
738FF8
632FF8
006FF8
316DF8
3369F8
06F4F0
0674F0
059BE0
2C63E0
6A99C0
50C600
1C0980
180640
380600
380100
400F00
780780
F003C0
E00000
ENDCHAR
STARTCHAR 189
ENCODING 189
SWIDTH 1512 0
DWIDTH 21 0
BBX 20 31 0 -6
BITMAP
101880
101880
197E60
197E60
6FF7E0
6FF7E0
7FE760
7FE760
7E01E0
7E01E0
7800E0
7800E0
EF0720
EF0720
7F8790
7F8790
1F0690
1F0690
0E0790
0E0790
1E6080
1E60A0
08F120
08F100
179740
179700
110800
110800
610860
610860
160600
ENDCHAR
STARTCHAR 190
ENCODING 190
SWIDTH 1512 0
DWIDTH 21 0
BBX 21 30 0 -5
BITMAP
003F80
003F80
002480
003F80
1DBF80
3D9F80
3C0F80
3CAFE0
701360
F1AAF0
F204F0
F1D4F0
C42070
C2D078
A29C78
704C38
F51C38
724C38
098F28
040F18
120300
196300
3CD3C0
3DABC0
FD5BF0
FCB3F0
FC63F0
FC03F0
3C0000
3C0000
ENDCHAR
STARTCHAR 191
ENCODING 191
SWIDTH 1512 0
DWIDTH 21 0
BBX 21 28 0 -4
BITMAP
000018
000038
0001F8
0001B8
000FF8
000FF8
0003E0
0007E0
03FFF8
0FFFF0
1FFF00
7FFE00
7FFE00
FFFF00
FFFF80
FFFF80
FFFFC0
FFFFC0
FFFBE0
FFF9E0
EFF950
E6BC00
E63C00
E61E00
E78A00
F30000
710000
300000
ENDCHAR
STARTCHAR 192
ENCODING 192
SWIDTH 1512 0
DWIDTH 21 0
BBX 21 25 0 -2
BITMAP
007E00
003D00
00FF80
C07FC0
70FDC0
70FDC0
38FC00
387C30
383E78
387FC8
18FF80
19FFF0
1BFE18
0FFC08
07F800
01F800
01F800
03F800
03B000
073000
073000
031800
018C00
00C600
006000
ENDCHAR
STARTCHAR 193
ENCODING 193
SWIDTH 1512 0
DWIDTH 21 0
BBX 21 24 0 -4
BITMAP
03FFC0
03FFC0
3FFFF0
3FC1F0
FE1E38
F9FF78
FBFF98
F3FF98
FF03B8
F703B8
FF0398
EF13D8
EF1B98
EF0FB8
E7FBB8
F3F9B8
3BFE70
3C3E70
3FD670
3FFF30
07FFE0
03FF70
000038
000018
ENDCHAR
STARTCHAR 194
ENCODING 194
SWIDTH 1512 0
DWIDTH 21 0
BBX 21 15 0 -5
BITMAP
040F00
0E3FC0
3BFFE0
FFFFE0
1FFFF0
0FFFF0
03FFF0
00FFF0
004FF0
0087B0
000218
000408
000008
000008
000010
ENDCHAR
STARTCHAR 195
ENCODING 195
SWIDTH 1512 0
DWIDTH 21 0
BBX 21 31 0 -6
BITMAP
01E000
03F300
0EF980
1E7CC0
3EFCE0
7FFCE0
EBFC70
57FE78
2FFE38
5FFF38
7EFF38
79FF38
01FF38
03FF38
07FF38
1FFF78
26FF70
1EFFF0
24FFF0
10FFE0
10FFE0
01FFC0
01FFC0
01FFC0
01FFC0
01F780
01E780
00E700
006300
00E300
00D700
ENDCHAR
STARTCHAR 196
ENCODING 196
SWIDTH 1512 0
DWIDTH 21 0
BBX 17 30 4 -6
BITMAP
0F0000
7F8000
FBC000
FFE000
9FE000
5FF000
FFF000
07F800
1FFB00
3FF980
7FF980
67F980
4FF980
1FFB80
1FFB80
17FF80
07FF80
07FF00
07FF00
07FE00
0FFC00
1FFC00
1FF800
1FF800
1F3800
0E3800
0E1800
1E1800
3C3800
607C00
ENDCHAR
STARTCHAR 197
ENCODING 197
SWIDTH 1512 0
DWIDTH 21 0
BBX 21 30 0 -6
BITMAP
00A800
00F800
00F800
487088
50F850
242150
E8A8A8
307050
AE0060
407098
200030
1F0450
00D940
0124C0
00D840
002000
00D800
002000
008800
01DC00
00D800
00A800
008800
018C00
008800
008800
008800
018C00
010600
030500
ENDCHAR
STARTCHAR 198
ENCODING 198
SWIDTH 1512 0
DWIDTH 21 0
BBX 21 30 0 -6
BITMAP
018000
01E000
00F000
3C7800
7E1800
6F0800
438800
00EBE0
7CFFF8
FF7FF8
F7DFF8
C1F7F8
80DDF0
0FF7E0
1F5D00
39F7F0
71BFF8
70EB78
E0FD98
E07D98
C0ECC8
C0C4C8
00C6C8
00C640
00C660
00C660
00C660
00C660
008660
000600
ENDCHAR
STARTCHAR 199
ENCODING 199
SWIDTH 1512 0
DWIDTH 21 0
BBX 21 26 0 -3
BITMAP
003800
00BA00
009200
006C00
0E7CE0
074580
034560
1BBB60
3DC6F0
7DFEF0
F9FE78
E1FE38
E1FE38
710238
70FC30
727978
043070
138700
078740
0F8780
0F03C0
090240
0B0340
1F03E0
1F03E0
3502B0
ENDCHAR
STARTCHAR 200
ENCODING 200
SWIDTH 1512 0
DWIDTH 21 0
BBX 17 19 2 -4
BITMAP
1FF000
3FF800
7BEC00
F9CE00
DC1E00
DE3F00
CC1F00
E55F80
E00780
F5D380
FC1980
FC1F80
FC0F80
FC0F80
788F80
788F00
31C700
3FFE00
0FFC00
ENDCHAR
STARTCHAR 201
ENCODING 201
SWIDTH 1512 0
DWIDTH 21 0
BBX 21 29 0 -6
BITMAP
100040
300060
3888E0
458D10
438E10
83FE08
C98C88
DC5110
6A01E8
9570F0
928160
A541B0
AEA1B0
ED51D0
E8A8D0
2057D0
195800
088200
035400
030300
03C380
038080
0302C0
028740
050280
028500
01C600
00C600
00C600
ENDCHAR
STARTCHAR 202
ENCODING 202
SWIDTH 1512 0
DWIDTH 21 0
BBX 21 27 0 -4
BITMAP
000E00
007700
003F00
003500
001F00
001FF8
E07FD8
3E3FC0
1E7FE0
067570
06FF38
06F800
07FC00
07FE00
03FE00
03EF00
01FF00
01F180
0079C0
001CE0
001870
003000
003000
006000
00E000
00C000
00C000
ENDCHAR
STARTCHAR 203
ENCODING 203
SWIDTH 1512 0
DWIDTH 21 0
BBX 20 30 1 -6
BITMAP
00E000
011000
02C800
05E400
14A500
2D4680
50C140
280280
11E100
092200
100100
280200
500100
540500
0C0700
206100
106100
108100
119100
160D00
180300
100100
100100
300180
311180
7318C0
FE0FE0
F001E0
071C10
0F1E00
ENDCHAR
STARTCHAR 204
ENCODING 204
SWIDTH 1512 0
DWIDTH 21 0
BBX 21 28 0 -5
BITMAP
003F00
007F00
00FF00
01DF00
038F00
030700
030700
030300
0FFF80
1FFFC0
3FFFE0
7FFFF0
78FF30
F0FF38
E1FF18
C1FF18
C1FF08
83FF08
03FF80
03FF80
07FFC0
07FFC0
0FFFC0
0FFFC0
1FFFC0
3FFFC0
00FFC0
003FC0
ENDCHAR
STARTCHAR 205
ENCODING 205
SWIDTH 1512 0
DWIDTH 21 0
BBX 19 30 1 -5
BITMAP
000040
054060
0540C0
07C060
0000C0
07C060
0540C0
07C060
0AA0C0
1BB060
1938C0
3C6C60
3EECC0
7FFE60
7FFEC0
7FFF60
FFD760
FFB3C0
FF7380
F6F240
F9F980
A9F8C0
D6F800
EFF800
FFF800
FFF800
FFF800
383800
3C3E00
3E3E00
ENDCHAR
STARTCHAR 206
ENCODING 206
SWIDTH 1512 0
DWIDTH 21 0
BBX 21 30 0 -5
BITMAP
07E000
099380
0B9FF0
0FFFF8
0C37D8
1FFBB8
181D78
0ADEF8
0EDEF0
0C7EF0
0C1EF0
0E3EF0
0E1EF0
0C1EE0
0F1FF0
071FE0
0F1FF0
0F1D70
1E9E68
3D3D78
703A70
F07438
F8FA38
F4F818
ECE018
94F018
A8E018
50E018
01F038
01E038
ENDCHAR
STARTCHAR 207
ENCODING 207
SWIDTH 1512 0
DWIDTH 21 0
BBX 20 20 0 2
BITMAP
180000
1F8000
1FC000
0FE000
007000
07BC00
FFFE00
F83F80
03FFF0
0FFFF0
FCFFF0
F1FFF0
07BFF0
1E7FF0
79FFF0
F1C7F0
C381F0
1E0030
3C0000
300000
ENDCHAR
STARTCHAR 208
ENCODING 208
SWIDTH 1512 0
DWIDTH 21 0
BBX 21 29 0 -5
BITMAP
007000
00F000
002000
00A800
00F000
200800
A87000
700028
26DC38
6B7F38
CDBB98
6855A0
00E800
01DC00
01B400
016800
00DC00
01B600
006C00
02CE00
038C00
038C00
038400
008800
010C00
018C00
018C00
078F00
0F0780
ENDCHAR
STARTCHAR 209
ENCODING 209
SWIDTH 1512 0
DWIDTH 21 0
BBX 20 26 0 -5
BITMAP
FFFE00
7FFF00
3CFF80
1EFFC0
0FC7E0
07C3F0
07C1F0
07C1F0
07C1F0
FFC1F0
7FC1F0
3CC1F0
1EC1F0
0FC1F0
07C1F0
07C1F0
07C1F0
07C1F0
FFC1F0
7FC1F0
3CC3F0
1EC7E0
0FFFC0
07FF80
07FF00
07FE00
ENDCHAR
STARTCHAR 210
ENCODING 210
SWIDTH 1512 0
DWIDTH 21 0
BBX 20 29 0 -5
BITMAP
FFFC00
7FFF00
3FFF80
1E7FC0
0C7FE0
04C7E0
07C3F0
FFC1F0
7FC1F0
3E40F0
1C40F0
0CC0F0
07C0F0
07C0F0
FFC0F0
7E40F0
3C40F0
1CC0F0
0FC0F0
07C0F0
07C0F0
FE41F0
7C43F0
3CC7E0
1FFFE0
0FFFC0
07FF80
07FF00
07FC00
ENDCHAR
STARTCHAR 211
ENCODING 211
SWIDTH 1512 0
DWIDTH 21 0
BBX 17 25 2 -2
BITMAP
FFF000
7FFC00
3FFE00
3C1F00
3C0F00
3C0780
3C0780
3C0780
3C9780
3C0780
3C0780
3C0780
3C0780
3C0780
3CC780
3C0780
3C0780
3C0F80
3C1F00
3FFF00
7FFE00
FFFE00
3B3700
771B80
E61980
ENDCHAR
STARTCHAR 212
ENCODING 212
SWIDTH 1512 0
DWIDTH 21 0
BBX 20 28 0 -5
BITMAP
0FFF00
3FFF80
7FFFC0
FF07E0
FF03E0
EF01F0
CF01F0
CF6DF0
8F6DF0
8F6DF0
8F01F0
0F01F0
0F01F0
0F39F0
0F39F0
0F39F0
0F01F0
0F03E0
1F07E0
3FFFC0
7FFFC0
FFFF80
1D8DE0
1986F0
398330
738730
E70E60
E61840
ENDCHAR
STARTCHAR 213
ENCODING 213
SWIDTH 1512 0
DWIDTH 21 0
BBX 20 22 0 -1
BITMAP
FFFC00
3FFF00
3FFF00
1FFFC0
1C03E0
1C01F0
1C31F0
FC30F0
3C30F0
3C30F0
1C30F0
1C30F0
1C30F0
FCFCF0
3C78F0
3C30F0
1C01F0
1C03F0
11FFE0
2FFFC0
2FFFC0
FFFE00
ENDCHAR
STARTCHAR 214
ENCODING 214
SWIDTH 1512 0
DWIDTH 21 0
BBX 18 23 2 -5
BITMAP
002000
007000
00F800
01FC00
03FE00
078F00
0F0780
1E03C0
3E03C0
7F0780
FF8F00
E3FE00
71FC00
707800
383000
3C0180
1E0300
1F0700
0F8E00
07FC00
03F800
01F000
00E000
ENDCHAR
STARTCHAR 215
ENCODING 215
SWIDTH 1512 0
DWIDTH 21 0
BBX 15 26 3 -4
BITMAP
0AA0
1550
3FF0
3FF0
FFFC
FFFC
E00E
E00E
E000
E000
E000
E640
EF60
FDF0
F8F0
E060
E040
E000
E000
E00E
FFFC
FFFC
FFFC
3FF0
1550
0AA0
ENDCHAR
STARTCHAR 216
ENCODING 216
SWIDTH 1512 0
DWIDTH 21 0
BBX 18 27 3 -5
BITMAP
00C000
01E000
03F000
07F800
0FFC00
1F3E00
3E1F00
7C0F80
F807C0
7C0F80
3E1F00
1F3E00
0FFC00
07F800
03F700
01FF00
03FC00
07F800
073000
0E3000
0E3000
0C7000
0C7000
0CF000
0FE000
0FC000
030000
ENDCHAR
STARTCHAR 217
ENCODING 217
SWIDTH 1512 0
DWIDTH 21 0
BBX 18 25 2 -1
BITMAP
000040
0000C0
03F9C0
0FFFC0
1FFFC0
3FFFC0
3F07C0
7C03C0
7801C0
7800C0
780040
F00000
F00200
F00600
F00F00
F03F00
F07F80
F0FFC0
7803C0
7C03C0
7F03C0
3FFF80
3FFF00
7FFE00
FFFC00
ENDCHAR
STARTCHAR 218
ENCODING 218
SWIDTH 1512 0
DWIDTH 21 0
BBX 17 22 3 -1
BITMAP
080000
080000
080000
180000
783800
783800
F83800
180000
180000
180000
180000
180000
19E000
1FF000
1FF000
1FF000
187000
187080
187980
187980
187F80
7E1F00
ENDCHAR
STARTCHAR 219
ENCODING 219
SWIDTH 1512 0
DWIDTH 21 0
BBX 17 23 3 -1
BITMAP
001000
083800
085400
085000
185000
787000
781C00
F81400
181400
185400
183800
181000
180000
19E000
1FF000
1FF000
1FF000
187000
187080
187980
187980
187F80
7E1F00
ENDCHAR
STARTCHAR 220
ENCODING 220
SWIDTH 1512 0
DWIDTH 21 0
BBX 19 27 1 -4
BITMAP
008000
070040
0F03C0
7C0780
7C0700
FC0F00
3C0F00
3C0780
1C0380
1C0380
1C0380
3C0780
3FFF80
3FFF00
3F1F00
3C0700
1C0780
1C0380
1C0380
3C0380
3C0380
7C0780
7E0FC0
FF1FE0
3C0780
180300
100100
ENDCHAR
STARTCHAR 221
ENCODING 221
SWIDTH 1512 0
DWIDTH 21 0
BBX 19 26 1 -5
BITMAP
000100
000200
000700
001BC0
0007C0
000700
000000
000000
000000
000600
000200
000600
000600
005E00
0026A0
000740
000600
000600
300680
F80700
CC06C0
8E1C00
A63C00
663C00
07F800
03E000
ENDCHAR
STARTCHAR 222
ENCODING 222
SWIDTH 1512 0
DWIDTH 21 0
BBX 21 24 0 -2
BITMAP
007FF8
007FF8
003FF0
001FE0
000FC0
000680
000580
000680
000580
000680
000580
000680
000580
000680
FF8580
FF0680
7E0580
7C0680
380D80
3C1F80
1E3F80
1FFF00
0FFE00
07FC00
ENDCHAR
STARTCHAR 223
ENCODING 223
SWIDTH 1512 0
DWIDTH 21 0
BBX 18 25 1 -3
BITMAP
FF8000
6B8000
348000
1B8000
0C8000
0A8000
0E8000
0D8000
0B8000
0C8000
0E8000
0A8000
0D8000
0D8000
0A8000
0D8040
0D80C0
0A81C0
0D83C0
0D8F40
0AFEC0
1D5540
1AAAC0
3FFFC0
3FFFC0
ENDCHAR
STARTCHAR 224
ENCODING 224
SWIDTH 1512 0
DWIDTH 21 0
BBX 20 26 0 -4
BITMAP
FFFE00
7FFC00
3FF800
1FF000
0FE000
0FE000
0FE000
0FE000
0FE000
0FE000
0FE000
0FE000
0FE000
0FE000
0FE000
0FE010
0FE030
0FE070
0FE0F0
0FE1F0
0FFFF0
0FFFF0
1FFFF0
3FFFF0
7FFFF0
FFFFF0
ENDCHAR
STARTCHAR 225
ENCODING 225
SWIDTH 1512 0
DWIDTH 21 0
BBX 16 18 1 -5
BITMAP
FFF8
7FFE
3FFE
1E0F
1E07
1E07
1E07
1E0E
1FFC
1FF0
1C00
1C00
1C00
1C00
1C00
1C00
1800
1000
ENDCHAR
STARTCHAR 226
ENCODING 226
SWIDTH 1512 0
DWIDTH 21 0
BBX 18 22 1 -6
BITMAP
FFFE00
7FFF00
3FFF80
1F8380
0F83C0
0F83C0
0F83C0
FF83C0
7F83C0
3F83C0
1FFF80
0FFF80
0F7E00
0F0000
0F0000
0F0000
0F0000
0F0000
0E0000
0C0000
0C0000
080000
ENDCHAR
STARTCHAR 227
ENCODING 227
SWIDTH 1512 0
DWIDTH 21 0
BBX 19 21 0 -5
BITMAP
FFFF00
71FF00
39FF80
1D83E0
0F83E0
0F83E0
FF83E0
7183E0
3983E0
1D83E0
0FFFE0
0FFF80
FFFF00
71BF00
398000
1D8000
0F8000
0F8000
0F8000
0F8000
0F8000
ENDCHAR
STARTCHAR 228
ENCODING 228
SWIDTH 1512 0
DWIDTH 21 0
BBX 18 26 1 -5
BITMAP
008000
800040
000000
208100
000000
088800
000000
7FFC00
3FFF00
5FFF00
2F1780
1F0B80
0F0780
0F0380
0F0700
0FFE80
0FF900
0E0600
0EF800
0E8000
0E8000
0E8000
0E8000
0E8000
0D0000
0A0000
ENDCHAR
STARTCHAR 229
ENCODING 229
SWIDTH 1512 0
DWIDTH 21 0
BBX 19 28 0 -6
BITMAP
078020
0FE0E0
1C71C0
183F80
301F00
200000
000000
000000
FFFF80
FFFFC0
3FFFE0
0F83E0
0F83E0
0F83E0
FF83E0
FF83E0
3F83E0
0F83E0
0FFFE0
0FFFE0
FFFFC0
FFBF80
3F8000
0F8000
0F8000
0F8000
0F8000
0F8000
ENDCHAR
STARTCHAR 230
ENCODING 230
SWIDTH 1512 0
DWIDTH 21 0
BBX 16 24 1 -5
BITMAP
1FFC
1FFC
1FFC
0000
0000
0000
0000
FFF8
7FFE
3FFE
1E0F
1E07
1E07
1E07
1E0E
1FFC
1FF0
1C00
1C00
1C00
1C00
1C00
1800
1000
ENDCHAR
STARTCHAR 231
ENCODING 231
SWIDTH 1512 0
DWIDTH 21 0
BBX 18 27 1 -6
BITMAP
1FFC00
1FFC00
1FFC00
000000
000000
FFFE00
7FFF00
3FFF80
1F8380
0F83C0
0F83C0
0F83C0
FF83C0
7F83C0
3F83C0
1FFF80
0FFF80
0F7E00
0F0000
0F0000
0F0000
0F0000
0F0000
0E0000
0C0000
0C0000
080000
ENDCHAR
STARTCHAR 232
ENCODING 232
SWIDTH 1512 0
DWIDTH 21 0
BBX 20 25 0 -3
BITMAP
FFFE00
FFFF00
FFFF00
FFFF80
EFFF80
CF07C0
8F03C0
0F03E0
0F01E0
0F00F0
0F00F0
0FFFF0
0FFFF0
0FFFF0
0FFFF0
0F0000
0F0000
0F0000
0F0000
0F0000
0F0000
1F0000
3F0000
7F0000
FF0000
ENDCHAR
STARTCHAR 233
ENCODING 233
SWIDTH 1512 0
DWIDTH 21 0
BBX 17 25 3 -6
BITMAP
000800
000800
001800
003800
003800
007800
0FF800
3FF800
7FF800
FC7800
F83800
F01800
F01800
F83800
FC7800
FFF800
7FF800
3F9800
001800
001880
001980
001B00
001E00
001C00
001000
ENDCHAR
STARTCHAR 234
ENCODING 234
SWIDTH 1512 0
DWIDTH 21 0
BBX 20 29 1 -5
BITMAP
800000
C00000
E00000
F00000
FFF800
FFFE00
7FFF00
7FFF80
7F1F80
7C0780
7803C0
F003C0
F001C0
F000E0
F000E0
F000E0
F000E0
F000E0
F000E0
F038E0
F038E0
781DC0
781FC0
3E0780
3FFFC0
1FFFC0
0FFDE0
03F860
000030
ENDCHAR
STARTCHAR 235
ENCODING 235
SWIDTH 1512 0
DWIDTH 21 0
BBX 20 29 1 -5
BITMAP
800040
C000C0
E001C0
F007C0
FFFFC0
FFFFC0
7FFF80
7FFF80
7F1F80
7C0780
7803C0
F003C0
F001C0
F000E0
F000E0
F000E0
F000E0
F000E0
F000E0
F038E0
F038E0
781DC0
781FC0
3E0780
3FFFC0
1FFFC0
0FFDE0
03F860
000030
ENDCHAR
STARTCHAR 236
ENCODING 236
SWIDTH 1512 0
DWIDTH 21 0
BBX 19 25 0 -3
BITMAP
C0F000
73FC00
7FFE00
3FFF00
3E0780
1E0380
0E0180
0E0180
0E0380
0E0780
0FFF00
0FFE00
0FF800
0FF800
0EFC00
0E7E00
0E3E00
0E1F00
0E0F00
0C0780
0C0380
0C01C0
0C00C0
080060
080020
ENDCHAR
STARTCHAR 237
ENCODING 237
SWIDTH 1512 0
DWIDTH 21 0
BBX 20 19 0 -5
BITMAP
015540
00FF90
03FFE0
01FFE0
0FC0F0
0380E0
1FC000
07FC00
3FFF00
03FE00
000F80
300600
F80F80
3FFE00
7FFC00
3FFB00
175000
252C00
082000
ENDCHAR
STARTCHAR 238
ENCODING 238
SWIDTH 1512 0
DWIDTH 21 0
BBX 20 24 1 -3
BITMAP
007E00
01FF00
07FF90
07FF90
0FFFF0
1F83F0
1E01E0
1C01C0
1C0180
1E0100
0FC000
0FF000
03FC00
01FF00
001F80
000380
300380
780380
FC0780
FFFF80
FFFF00
DFFE00
8FFC00
87F000
ENDCHAR
STARTCHAR 239
ENCODING 239
SWIDTH 1512 0
DWIDTH 21 0
BBX 17 18 2 -2
BITMAP
080800
080800
180C00
380E00
380E00
780F00
700700
F00780
F00780
F00780
F80F80
F80F80
FC1F80
7FFF00
7FFF00
3FFE00
1FFC00
07F000
ENDCHAR
STARTCHAR 240
ENCODING 240
SWIDTH 1512 0
DWIDTH 21 0
BBX 18 30 3 -5
BITMAP
800000
800000
800000
C00000
C00000
C00000
E00000
E03FC0
E01F80
E00F00
F00F00
F00F00
F00F00
F00F00
F00F00
F00F00
F00F00
F00F00
F00F00
F00F00
F00F00
F00F00
F00F00
F00F00
F00F00
F81F00
7FFE00
7FFC00
3FF800
0FF000
ENDCHAR
STARTCHAR 241
ENCODING 241
SWIDTH 1512 0
DWIDTH 21 0
BBX 16 30 3 -5
BITMAP
8001
8001
8001
C003
C003
C003
E007
E007
E007
F00F
F00F
F00F
F00F
F00F
F00F
F66F
F66F
F66F
F00F
F00F
F00F
F00F
F00F
F00F
F00F
F00F
781E
3FFC
1FF8
0FF0
ENDCHAR
STARTCHAR 242
ENCODING 242
SWIDTH 1512 0
DWIDTH 21 0
BBX 19 30 1 -5
BITMAP
800020
800020
C00060
CE0E60
C71C60
E318E0
E110E0
F001E0
F0A1E0
F0E1E0
F8E3E0
F843E0
F803E0
F803E0
F803E0
F803E0
F803E0
F803E0
F803E0
F803E0
F803E0
F803E0
FC07E0
7C07C0
7E0FC0
3F1F80
1FBF80
0FFF00
07FE00
03FC00
ENDCHAR
STARTCHAR 243
ENCODING 243
SWIDTH 1512 0
DWIDTH 21 0
BBX 21 18 0 -4
BITMAP
7800F0
7C00F0
3C01E0
1C01C0
BE03E8
0E0380
5F07D0
070700
2F8FA0
038E00
17DF40
01FC00
0BFE80
00F800
05FD00
007000
00F800
002000
ENDCHAR
STARTCHAR 244
ENCODING 244
SWIDTH 1512 0
DWIDTH 21 0
BBX 21 25 0 -4
BITMAP
360000
1C0D80
080700
000200
000000
00D800
007000
7820F0
7C00F0
3C01E0
1C01C0
BE03E8
0E0380
5F07D0
070700
2F8FA0
038E00
17DF40
01FC00
0BFE80
00F800
05FD00
007000
00F800
002000
ENDCHAR
STARTCHAR 245
ENCODING 245
SWIDTH 1512 0
DWIDTH 21 0
BBX 21 26 0 -4
BITMAP
07FF00
07FF00
07FF00
07FF00
000000
000000
000000
000000
7800F0
7C00F0
3C01E0
1C01C0
BE03E8
0E0380
5F07D0
070700
2F8FA0
038E00
17DF40
01FC00
0BFE80
00F800
05FD00
007000
00F800
002000
ENDCHAR
STARTCHAR 246
ENCODING 246
SWIDTH 1512 0
DWIDTH 21 0
BBX 21 18 0 0
BITMAP
240000
520000
520000
5203F8
FF03F8
7E01F0
3C00E0
1C00E0
1C00E0
1C00C0
0C30C0
0E79C0
0E79C0
06FD80
07CF80
03CF00
038700
010200
ENDCHAR
STARTCHAR 247
ENCODING 247
SWIDTH 1512 0
DWIDTH 21 0
BBX 19 30 1 -5
BITMAP
800000
800000
800000
C00000
C00000
C00000
C00000
E00000
E00000
E00020
E00000
F00020
F00000
F000A0
F00040
F001A0
F00140
F800A0
F80140
78E120
79F1A0
7BF960
7FFDE0
7FBFE0
7F1FC0
7E0FC0
7C07C0
7803C0
7001C0
6001C0
ENDCHAR
STARTCHAR 248
ENCODING 248
SWIDTH 1512 0
DWIDTH 21 0
BBX 19 28 1 -5
BITMAP
001C00
001C00
800020
870020
870020
C03860
C03860
E000E0
E000E0
E000E0
E000E0
E000E0
F001E0
F001E0
F001E0
F001C0
F041C0
70E1C0
71F1C0
73F9C0
77FDC0
7FBFC0
7F1FC0
3E0F80
3C0780
380380
300180
200080
ENDCHAR
STARTCHAR 249
ENCODING 249
SWIDTH 1512 0
DWIDTH 21 0
BBX 19 30 1 -5
BITMAP
800020
800020
800020
800020
C00060
C00060
C00060
E000E0
E000E0
E000E0
F041E0
F041E0
F041E0
F041E0
F0E1E0
F0E1E0
F0E1E0
F0E1E0
F0E1E0
F1F1E0
F1F1E0
F3F9E0
F7BDE0
FF1FE0
FE0FE0
FC07E0
F803E0
F803E0
F001E0
E000E0
ENDCHAR
STARTCHAR 250
ENCODING 250
SWIDTH 1512 0
DWIDTH 21 0
BBX 19 15 1 0
BITMAP
1FFFE0
3FFFC0
7FFF80
F00F00
E01E00
C03C00
807800
00F000
01E000
03C000
078020
0F0060
1FFFE0
3FFFC0
7FFF80
ENDCHAR
STARTCHAR 251
ENCODING 251
SWIDTH 1512 0
DWIDTH 21 0
BBX 15 22 3 -1
BITMAP
FFFE
FFFE
FFFE
E00E
E00E
C00E
C01E
003C
0078
00F0
01E0
03C0
0780
0F00
1E00
3C06
7806
F80E
F80E
FFFE
FFFE
FFFE
ENDCHAR
STARTCHAR 252
ENCODING 252
SWIDTH 1512 0
DWIDTH 21 0
BBX 21 27 0 -6
BITMAP
0FFFE0
0FFFE0
0FFFE0
0E00E0
0E00E0
FFE0E0
7FC1E0
3F83C0
1F0780
0E0F00
041E00
003C00
007800
00F000
01E000
03C000
078000
0F8000
0F8000
0FFFE0
0FFFE0
0FFFE0
000060
000060
0001F8
0000F0
000060
ENDCHAR
STARTCHAR 253
ENCODING 253
SWIDTH 1512 0
DWIDTH 21 0
BBX 15 26 3 -4
BITMAP
FFFE
F332
E666
CCCE
999E
FFFE
001C
003A
0076
00EE
01DC
03B8
0770
0EE0
1DC0
3B80
7700
EE00
DC00
B800
7FFE
F332
E666
CCCE
999E
FFFE
ENDCHAR
STARTCHAR 254
ENCODING 254
SWIDTH 1512 0
DWIDTH 21 0
BBX 21 26 0 -4
BITMAP
FFFFF0
7FFFF0
3FFFF0
1FFFF0
0FFFF0
07FFF0
0003F0
0007F0
000FE0
001FC0
003F80
007F00
00FE00
01FC00
03F800
07F000
0FE000
1FC000
3F8000
7F0000
7FFF00
7FFF80
7FFFC0
7FFFE0
7FFFF0
7FFFF8
ENDCHAR
STARTCHAR 255
ENCODING 255
SWIDTH 1512 0
DWIDTH 21 0
BBX 19 25 1 -5
BITMAP
000700
7C1F80
FE3FC0
FFFFC0
E7F9C0
C3C1C0
000380
000780
000F00
001E00
003C00
007800
00F000
01E000
03C000
078000
0F0000
1E0000
3C0000
787800
F9FC20
FFFE60
FFFFC0
7F0380
380000
ENDCHAR
ENDFONT
